G04 #@! TF.GenerationSoftware,KiCad,Pcbnew,(5.1.10)-1*
G04 #@! TF.CreationDate,2021-10-24T21:46:02+02:00*
G04 #@! TF.ProjectId,TestboardV2.2,54657374-626f-4617-9264-56322e322e6b,rev?*
G04 #@! TF.SameCoordinates,Original*
G04 #@! TF.FileFunction,Legend,Top*
G04 #@! TF.FilePolarity,Positive*
%FSLAX46Y46*%
G04 Gerber Fmt 4.6, Leading zero omitted, Abs format (unit mm)*
G04 Created by KiCad (PCBNEW (5.1.10)-1) date 2021-10-24 21:46:02*
%MOMM*%
%LPD*%
G01*
G04 APERTURE LIST*
%ADD10C,0.100000*%
%ADD11C,0.150000*%
%ADD12C,0.300000*%
%ADD13C,0.010000*%
%ADD14C,0.120000*%
%ADD15C,0.250000*%
%ADD16C,0.020000*%
%ADD17C,0.200000*%
%ADD18C,0.254000*%
G04 APERTURE END LIST*
D10*
X153456666Y-152452857D02*
X153570952Y-152490952D01*
X153609047Y-152529047D01*
X153647142Y-152605238D01*
X153647142Y-152719523D01*
X153609047Y-152795714D01*
X153570952Y-152833809D01*
X153494761Y-152871904D01*
X153190000Y-152871904D01*
X153190000Y-152071904D01*
X153456666Y-152071904D01*
X153532857Y-152110000D01*
X153570952Y-152148095D01*
X153609047Y-152224285D01*
X153609047Y-152300476D01*
X153570952Y-152376666D01*
X153532857Y-152414761D01*
X153456666Y-152452857D01*
X153190000Y-152452857D01*
X154332857Y-152871904D02*
X154332857Y-152452857D01*
X154294761Y-152376666D01*
X154218571Y-152338571D01*
X154066190Y-152338571D01*
X153990000Y-152376666D01*
X154332857Y-152833809D02*
X154256666Y-152871904D01*
X154066190Y-152871904D01*
X153990000Y-152833809D01*
X153951904Y-152757619D01*
X153951904Y-152681428D01*
X153990000Y-152605238D01*
X154066190Y-152567142D01*
X154256666Y-152567142D01*
X154332857Y-152529047D01*
X154599523Y-152338571D02*
X154904285Y-152338571D01*
X154713809Y-152071904D02*
X154713809Y-152757619D01*
X154751904Y-152833809D01*
X154828095Y-152871904D01*
X154904285Y-152871904D01*
X151361428Y-153638571D02*
X151361428Y-154438571D01*
X151361428Y-153676666D02*
X151437619Y-153638571D01*
X151590000Y-153638571D01*
X151666190Y-153676666D01*
X151704285Y-153714761D01*
X151742380Y-153790952D01*
X151742380Y-154019523D01*
X151704285Y-154095714D01*
X151666190Y-154133809D01*
X151590000Y-154171904D01*
X151437619Y-154171904D01*
X151361428Y-154133809D01*
X152085238Y-154171904D02*
X152085238Y-153638571D01*
X152085238Y-153790952D02*
X152123333Y-153714761D01*
X152161428Y-153676666D01*
X152237619Y-153638571D01*
X152313809Y-153638571D01*
X152694761Y-154171904D02*
X152618571Y-154133809D01*
X152580476Y-154095714D01*
X152542380Y-154019523D01*
X152542380Y-153790952D01*
X152580476Y-153714761D01*
X152618571Y-153676666D01*
X152694761Y-153638571D01*
X152809047Y-153638571D01*
X152885238Y-153676666D01*
X152923333Y-153714761D01*
X152961428Y-153790952D01*
X152961428Y-154019523D01*
X152923333Y-154095714D01*
X152885238Y-154133809D01*
X152809047Y-154171904D01*
X152694761Y-154171904D01*
X153190000Y-153638571D02*
X153494761Y-153638571D01*
X153304285Y-153371904D02*
X153304285Y-154057619D01*
X153342380Y-154133809D01*
X153418571Y-154171904D01*
X153494761Y-154171904D01*
X154066190Y-154133809D02*
X153990000Y-154171904D01*
X153837619Y-154171904D01*
X153761428Y-154133809D01*
X153723333Y-154057619D01*
X153723333Y-153752857D01*
X153761428Y-153676666D01*
X153837619Y-153638571D01*
X153990000Y-153638571D01*
X154066190Y-153676666D01*
X154104285Y-153752857D01*
X154104285Y-153829047D01*
X153723333Y-153905238D01*
X154790000Y-154133809D02*
X154713809Y-154171904D01*
X154561428Y-154171904D01*
X154485238Y-154133809D01*
X154447142Y-154095714D01*
X154409047Y-154019523D01*
X154409047Y-153790952D01*
X154447142Y-153714761D01*
X154485238Y-153676666D01*
X154561428Y-153638571D01*
X154713809Y-153638571D01*
X154790000Y-153676666D01*
X155018571Y-153638571D02*
X155323333Y-153638571D01*
X155132857Y-153371904D02*
X155132857Y-154057619D01*
X155170952Y-154133809D01*
X155247142Y-154171904D01*
X155323333Y-154171904D01*
X155894761Y-154133809D02*
X155818571Y-154171904D01*
X155666190Y-154171904D01*
X155590000Y-154133809D01*
X155551904Y-154057619D01*
X155551904Y-153752857D01*
X155590000Y-153676666D01*
X155666190Y-153638571D01*
X155818571Y-153638571D01*
X155894761Y-153676666D01*
X155932857Y-153752857D01*
X155932857Y-153829047D01*
X155551904Y-153905238D01*
X156618571Y-154171904D02*
X156618571Y-153371904D01*
X156618571Y-154133809D02*
X156542380Y-154171904D01*
X156390000Y-154171904D01*
X156313809Y-154133809D01*
X156275714Y-154095714D01*
X156237619Y-154019523D01*
X156237619Y-153790952D01*
X156275714Y-153714761D01*
X156313809Y-153676666D01*
X156390000Y-153638571D01*
X156542380Y-153638571D01*
X156618571Y-153676666D01*
X106751428Y-134531904D02*
X106751428Y-135179523D01*
X106789523Y-135255714D01*
X106827619Y-135293809D01*
X106903809Y-135331904D01*
X107056190Y-135331904D01*
X107132380Y-135293809D01*
X107170476Y-135255714D01*
X107208571Y-135179523D01*
X107208571Y-134531904D01*
X107551428Y-135293809D02*
X107665714Y-135331904D01*
X107856190Y-135331904D01*
X107932380Y-135293809D01*
X107970476Y-135255714D01*
X108008571Y-135179523D01*
X108008571Y-135103333D01*
X107970476Y-135027142D01*
X107932380Y-134989047D01*
X107856190Y-134950952D01*
X107703809Y-134912857D01*
X107627619Y-134874761D01*
X107589523Y-134836666D01*
X107551428Y-134760476D01*
X107551428Y-134684285D01*
X107589523Y-134608095D01*
X107627619Y-134570000D01*
X107703809Y-134531904D01*
X107894285Y-134531904D01*
X108008571Y-134570000D01*
X108618095Y-134912857D02*
X108732380Y-134950952D01*
X108770476Y-134989047D01*
X108808571Y-135065238D01*
X108808571Y-135179523D01*
X108770476Y-135255714D01*
X108732380Y-135293809D01*
X108656190Y-135331904D01*
X108351428Y-135331904D01*
X108351428Y-134531904D01*
X108618095Y-134531904D01*
X108694285Y-134570000D01*
X108732380Y-134608095D01*
X108770476Y-134684285D01*
X108770476Y-134760476D01*
X108732380Y-134836666D01*
X108694285Y-134874761D01*
X108618095Y-134912857D01*
X108351428Y-134912857D01*
X110218095Y-135255714D02*
X110180000Y-135293809D01*
X110065714Y-135331904D01*
X109989523Y-135331904D01*
X109875238Y-135293809D01*
X109799047Y-135217619D01*
X109760952Y-135141428D01*
X109722857Y-134989047D01*
X109722857Y-134874761D01*
X109760952Y-134722380D01*
X109799047Y-134646190D01*
X109875238Y-134570000D01*
X109989523Y-134531904D01*
X110065714Y-134531904D01*
X110180000Y-134570000D01*
X110218095Y-134608095D01*
X110560952Y-135331904D02*
X110560952Y-134531904D01*
X110903809Y-135331904D02*
X110903809Y-134912857D01*
X110865714Y-134836666D01*
X110789523Y-134798571D01*
X110675238Y-134798571D01*
X110599047Y-134836666D01*
X110560952Y-134874761D01*
X111627619Y-135331904D02*
X111627619Y-134912857D01*
X111589523Y-134836666D01*
X111513333Y-134798571D01*
X111360952Y-134798571D01*
X111284761Y-134836666D01*
X111627619Y-135293809D02*
X111551428Y-135331904D01*
X111360952Y-135331904D01*
X111284761Y-135293809D01*
X111246666Y-135217619D01*
X111246666Y-135141428D01*
X111284761Y-135065238D01*
X111360952Y-135027142D01*
X111551428Y-135027142D01*
X111627619Y-134989047D01*
X112008571Y-135331904D02*
X112008571Y-134798571D01*
X112008571Y-134950952D02*
X112046666Y-134874761D01*
X112084761Y-134836666D01*
X112160952Y-134798571D01*
X112237142Y-134798571D01*
X112846666Y-134798571D02*
X112846666Y-135446190D01*
X112808571Y-135522380D01*
X112770476Y-135560476D01*
X112694285Y-135598571D01*
X112580000Y-135598571D01*
X112503809Y-135560476D01*
X112846666Y-135293809D02*
X112770476Y-135331904D01*
X112618095Y-135331904D01*
X112541904Y-135293809D01*
X112503809Y-135255714D01*
X112465714Y-135179523D01*
X112465714Y-134950952D01*
X112503809Y-134874761D01*
X112541904Y-134836666D01*
X112618095Y-134798571D01*
X112770476Y-134798571D01*
X112846666Y-134836666D01*
X113532380Y-135293809D02*
X113456190Y-135331904D01*
X113303809Y-135331904D01*
X113227619Y-135293809D01*
X113189523Y-135217619D01*
X113189523Y-134912857D01*
X113227619Y-134836666D01*
X113303809Y-134798571D01*
X113456190Y-134798571D01*
X113532380Y-134836666D01*
X113570476Y-134912857D01*
X113570476Y-134989047D01*
X113189523Y-135065238D01*
X113913333Y-135331904D02*
X113913333Y-134798571D01*
X113913333Y-134950952D02*
X113951428Y-134874761D01*
X113989523Y-134836666D01*
X114065714Y-134798571D01*
X114141904Y-134798571D01*
X115399047Y-135331904D02*
X115018095Y-135331904D01*
X115018095Y-134531904D01*
X115665714Y-134912857D02*
X115932380Y-134912857D01*
X116046666Y-135331904D02*
X115665714Y-135331904D01*
X115665714Y-134531904D01*
X116046666Y-134531904D01*
X116389523Y-135331904D02*
X116389523Y-134531904D01*
X116580000Y-134531904D01*
X116694285Y-134570000D01*
X116770476Y-134646190D01*
X116808571Y-134722380D01*
X116846666Y-134874761D01*
X116846666Y-134989047D01*
X116808571Y-135141428D01*
X116770476Y-135217619D01*
X116694285Y-135293809D01*
X116580000Y-135331904D01*
X116389523Y-135331904D01*
X120721904Y-115616666D02*
X119921904Y-115616666D01*
X119921904Y-115311904D01*
X119960000Y-115235714D01*
X119998095Y-115197619D01*
X120074285Y-115159523D01*
X120188571Y-115159523D01*
X120264761Y-115197619D01*
X120302857Y-115235714D01*
X120340952Y-115311904D01*
X120340952Y-115616666D01*
X119921904Y-114892857D02*
X120721904Y-114702380D01*
X120150476Y-114550000D01*
X120721904Y-114397619D01*
X119921904Y-114207142D01*
X120721904Y-113445238D02*
X120340952Y-113711904D01*
X120721904Y-113902380D02*
X119921904Y-113902380D01*
X119921904Y-113597619D01*
X119960000Y-113521428D01*
X119998095Y-113483333D01*
X120074285Y-113445238D01*
X120188571Y-113445238D01*
X120264761Y-113483333D01*
X120302857Y-113521428D01*
X120340952Y-113597619D01*
X120340952Y-113902380D01*
D11*
X99090952Y-138013809D02*
X99205238Y-138051904D01*
X99395714Y-138051904D01*
X99471904Y-138013809D01*
X99510000Y-137975714D01*
X99548095Y-137899523D01*
X99548095Y-137823333D01*
X99510000Y-137747142D01*
X99471904Y-137709047D01*
X99395714Y-137670952D01*
X99243333Y-137632857D01*
X99167142Y-137594761D01*
X99129047Y-137556666D01*
X99090952Y-137480476D01*
X99090952Y-137404285D01*
X99129047Y-137328095D01*
X99167142Y-137290000D01*
X99243333Y-137251904D01*
X99433809Y-137251904D01*
X99548095Y-137290000D01*
X100005238Y-138051904D02*
X99929047Y-138013809D01*
X99890952Y-137975714D01*
X99852857Y-137899523D01*
X99852857Y-137670952D01*
X99890952Y-137594761D01*
X99929047Y-137556666D01*
X100005238Y-137518571D01*
X100119523Y-137518571D01*
X100195714Y-137556666D01*
X100233809Y-137594761D01*
X100271904Y-137670952D01*
X100271904Y-137899523D01*
X100233809Y-137975714D01*
X100195714Y-138013809D01*
X100119523Y-138051904D01*
X100005238Y-138051904D01*
X100729047Y-138051904D02*
X100652857Y-138013809D01*
X100614761Y-137937619D01*
X100614761Y-137251904D01*
X101376666Y-138051904D02*
X101376666Y-137632857D01*
X101338571Y-137556666D01*
X101262380Y-137518571D01*
X101110000Y-137518571D01*
X101033809Y-137556666D01*
X101376666Y-138013809D02*
X101300476Y-138051904D01*
X101110000Y-138051904D01*
X101033809Y-138013809D01*
X100995714Y-137937619D01*
X100995714Y-137861428D01*
X101033809Y-137785238D01*
X101110000Y-137747142D01*
X101300476Y-137747142D01*
X101376666Y-137709047D01*
X101757619Y-138051904D02*
X101757619Y-137518571D01*
X101757619Y-137670952D02*
X101795714Y-137594761D01*
X101833809Y-137556666D01*
X101910000Y-137518571D01*
X101986190Y-137518571D01*
X102786190Y-137518571D02*
X102938571Y-138051904D01*
X103090952Y-137670952D01*
X103243333Y-138051904D01*
X103395714Y-137518571D01*
X104043333Y-138051904D02*
X104043333Y-137632857D01*
X104005238Y-137556666D01*
X103929047Y-137518571D01*
X103776666Y-137518571D01*
X103700476Y-137556666D01*
X104043333Y-138013809D02*
X103967142Y-138051904D01*
X103776666Y-138051904D01*
X103700476Y-138013809D01*
X103662380Y-137937619D01*
X103662380Y-137861428D01*
X103700476Y-137785238D01*
X103776666Y-137747142D01*
X103967142Y-137747142D01*
X104043333Y-137709047D01*
X104424285Y-138051904D02*
X104424285Y-137518571D01*
X104424285Y-137670952D02*
X104462380Y-137594761D01*
X104500476Y-137556666D01*
X104576666Y-137518571D01*
X104652857Y-137518571D01*
X104919523Y-137518571D02*
X104919523Y-138051904D01*
X104919523Y-137594761D02*
X104957619Y-137556666D01*
X105033809Y-137518571D01*
X105148095Y-137518571D01*
X105224285Y-137556666D01*
X105262380Y-137632857D01*
X105262380Y-138051904D01*
X105643333Y-138051904D02*
X105643333Y-137518571D01*
X105643333Y-137251904D02*
X105605238Y-137290000D01*
X105643333Y-137328095D01*
X105681428Y-137290000D01*
X105643333Y-137251904D01*
X105643333Y-137328095D01*
X106024285Y-137518571D02*
X106024285Y-138051904D01*
X106024285Y-137594761D02*
X106062380Y-137556666D01*
X106138571Y-137518571D01*
X106252857Y-137518571D01*
X106329047Y-137556666D01*
X106367142Y-137632857D01*
X106367142Y-138051904D01*
X107090952Y-137518571D02*
X107090952Y-138166190D01*
X107052857Y-138242380D01*
X107014761Y-138280476D01*
X106938571Y-138318571D01*
X106824285Y-138318571D01*
X106748095Y-138280476D01*
X107090952Y-138013809D02*
X107014761Y-138051904D01*
X106862380Y-138051904D01*
X106786190Y-138013809D01*
X106748095Y-137975714D01*
X106710000Y-137899523D01*
X106710000Y-137670952D01*
X106748095Y-137594761D01*
X106786190Y-137556666D01*
X106862380Y-137518571D01*
X107014761Y-137518571D01*
X107090952Y-137556666D01*
X135727142Y-164323809D02*
X135841428Y-164361904D01*
X136031904Y-164361904D01*
X136108095Y-164323809D01*
X136146190Y-164285714D01*
X136184285Y-164209523D01*
X136184285Y-164133333D01*
X136146190Y-164057142D01*
X136108095Y-164019047D01*
X136031904Y-163980952D01*
X135879523Y-163942857D01*
X135803333Y-163904761D01*
X135765238Y-163866666D01*
X135727142Y-163790476D01*
X135727142Y-163714285D01*
X135765238Y-163638095D01*
X135803333Y-163600000D01*
X135879523Y-163561904D01*
X136070000Y-163561904D01*
X136184285Y-163600000D01*
X136641428Y-164361904D02*
X136565238Y-164323809D01*
X136527142Y-164285714D01*
X136489047Y-164209523D01*
X136489047Y-163980952D01*
X136527142Y-163904761D01*
X136565238Y-163866666D01*
X136641428Y-163828571D01*
X136755714Y-163828571D01*
X136831904Y-163866666D01*
X136870000Y-163904761D01*
X136908095Y-163980952D01*
X136908095Y-164209523D01*
X136870000Y-164285714D01*
X136831904Y-164323809D01*
X136755714Y-164361904D01*
X136641428Y-164361904D01*
X137365238Y-164361904D02*
X137289047Y-164323809D01*
X137250952Y-164247619D01*
X137250952Y-163561904D01*
X138012857Y-164361904D02*
X138012857Y-163942857D01*
X137974761Y-163866666D01*
X137898571Y-163828571D01*
X137746190Y-163828571D01*
X137670000Y-163866666D01*
X138012857Y-164323809D02*
X137936666Y-164361904D01*
X137746190Y-164361904D01*
X137670000Y-164323809D01*
X137631904Y-164247619D01*
X137631904Y-164171428D01*
X137670000Y-164095238D01*
X137746190Y-164057142D01*
X137936666Y-164057142D01*
X138012857Y-164019047D01*
X138393809Y-164361904D02*
X138393809Y-163828571D01*
X138393809Y-163980952D02*
X138431904Y-163904761D01*
X138470000Y-163866666D01*
X138546190Y-163828571D01*
X138622380Y-163828571D01*
X139841428Y-164361904D02*
X139841428Y-163561904D01*
X139841428Y-164323809D02*
X139765238Y-164361904D01*
X139612857Y-164361904D01*
X139536666Y-164323809D01*
X139498571Y-164285714D01*
X139460476Y-164209523D01*
X139460476Y-163980952D01*
X139498571Y-163904761D01*
X139536666Y-163866666D01*
X139612857Y-163828571D01*
X139765238Y-163828571D01*
X139841428Y-163866666D01*
X140336666Y-164361904D02*
X140260476Y-164323809D01*
X140222380Y-164285714D01*
X140184285Y-164209523D01*
X140184285Y-163980952D01*
X140222380Y-163904761D01*
X140260476Y-163866666D01*
X140336666Y-163828571D01*
X140450952Y-163828571D01*
X140527142Y-163866666D01*
X140565238Y-163904761D01*
X140603333Y-163980952D01*
X140603333Y-164209523D01*
X140565238Y-164285714D01*
X140527142Y-164323809D01*
X140450952Y-164361904D01*
X140336666Y-164361904D01*
X140946190Y-163828571D02*
X140946190Y-164361904D01*
X140946190Y-163904761D02*
X140984285Y-163866666D01*
X141060476Y-163828571D01*
X141174761Y-163828571D01*
X141250952Y-163866666D01*
X141289047Y-163942857D01*
X141289047Y-164361904D01*
X141974761Y-164323809D02*
X141898571Y-164361904D01*
X141746190Y-164361904D01*
X141670000Y-164323809D01*
X141631904Y-164247619D01*
X141631904Y-163942857D01*
X141670000Y-163866666D01*
X141746190Y-163828571D01*
X141898571Y-163828571D01*
X141974761Y-163866666D01*
X142012857Y-163942857D01*
X142012857Y-164019047D01*
X141631904Y-164095238D01*
X135336666Y-165863809D02*
X135450952Y-165901904D01*
X135641428Y-165901904D01*
X135717619Y-165863809D01*
X135755714Y-165825714D01*
X135793809Y-165749523D01*
X135793809Y-165673333D01*
X135755714Y-165597142D01*
X135717619Y-165559047D01*
X135641428Y-165520952D01*
X135489047Y-165482857D01*
X135412857Y-165444761D01*
X135374761Y-165406666D01*
X135336666Y-165330476D01*
X135336666Y-165254285D01*
X135374761Y-165178095D01*
X135412857Y-165140000D01*
X135489047Y-165101904D01*
X135679523Y-165101904D01*
X135793809Y-165140000D01*
X136250952Y-165901904D02*
X136174761Y-165863809D01*
X136136666Y-165825714D01*
X136098571Y-165749523D01*
X136098571Y-165520952D01*
X136136666Y-165444761D01*
X136174761Y-165406666D01*
X136250952Y-165368571D01*
X136365238Y-165368571D01*
X136441428Y-165406666D01*
X136479523Y-165444761D01*
X136517619Y-165520952D01*
X136517619Y-165749523D01*
X136479523Y-165825714D01*
X136441428Y-165863809D01*
X136365238Y-165901904D01*
X136250952Y-165901904D01*
X136974761Y-165901904D02*
X136898571Y-165863809D01*
X136860476Y-165787619D01*
X136860476Y-165101904D01*
X137622380Y-165901904D02*
X137622380Y-165482857D01*
X137584285Y-165406666D01*
X137508095Y-165368571D01*
X137355714Y-165368571D01*
X137279523Y-165406666D01*
X137622380Y-165863809D02*
X137546190Y-165901904D01*
X137355714Y-165901904D01*
X137279523Y-165863809D01*
X137241428Y-165787619D01*
X137241428Y-165711428D01*
X137279523Y-165635238D01*
X137355714Y-165597142D01*
X137546190Y-165597142D01*
X137622380Y-165559047D01*
X138003333Y-165901904D02*
X138003333Y-165368571D01*
X138003333Y-165520952D02*
X138041428Y-165444761D01*
X138079523Y-165406666D01*
X138155714Y-165368571D01*
X138231904Y-165368571D01*
X139450952Y-165863809D02*
X139374761Y-165901904D01*
X139222380Y-165901904D01*
X139146190Y-165863809D01*
X139108095Y-165825714D01*
X139070000Y-165749523D01*
X139070000Y-165520952D01*
X139108095Y-165444761D01*
X139146190Y-165406666D01*
X139222380Y-165368571D01*
X139374761Y-165368571D01*
X139450952Y-165406666D01*
X139793809Y-165901904D02*
X139793809Y-165101904D01*
X140136666Y-165901904D02*
X140136666Y-165482857D01*
X140098571Y-165406666D01*
X140022380Y-165368571D01*
X139908095Y-165368571D01*
X139831904Y-165406666D01*
X139793809Y-165444761D01*
X140860476Y-165901904D02*
X140860476Y-165482857D01*
X140822380Y-165406666D01*
X140746190Y-165368571D01*
X140593809Y-165368571D01*
X140517619Y-165406666D01*
X140860476Y-165863809D02*
X140784285Y-165901904D01*
X140593809Y-165901904D01*
X140517619Y-165863809D01*
X140479523Y-165787619D01*
X140479523Y-165711428D01*
X140517619Y-165635238D01*
X140593809Y-165597142D01*
X140784285Y-165597142D01*
X140860476Y-165559047D01*
X141241428Y-165901904D02*
X141241428Y-165368571D01*
X141241428Y-165520952D02*
X141279523Y-165444761D01*
X141317619Y-165406666D01*
X141393809Y-165368571D01*
X141470000Y-165368571D01*
X142079523Y-165368571D02*
X142079523Y-166016190D01*
X142041428Y-166092380D01*
X142003333Y-166130476D01*
X141927142Y-166168571D01*
X141812857Y-166168571D01*
X141736666Y-166130476D01*
X142079523Y-165863809D02*
X142003333Y-165901904D01*
X141850952Y-165901904D01*
X141774761Y-165863809D01*
X141736666Y-165825714D01*
X141698571Y-165749523D01*
X141698571Y-165520952D01*
X141736666Y-165444761D01*
X141774761Y-165406666D01*
X141850952Y-165368571D01*
X142003333Y-165368571D01*
X142079523Y-165406666D01*
X142765238Y-165863809D02*
X142689047Y-165901904D01*
X142536666Y-165901904D01*
X142460476Y-165863809D01*
X142422380Y-165787619D01*
X142422380Y-165482857D01*
X142460476Y-165406666D01*
X142536666Y-165368571D01*
X142689047Y-165368571D01*
X142765238Y-165406666D01*
X142803333Y-165482857D01*
X142803333Y-165559047D01*
X142422380Y-165635238D01*
D10*
X121567619Y-111981904D02*
X121834285Y-112781904D01*
X122100952Y-111981904D01*
X122710476Y-112743809D02*
X122634285Y-112781904D01*
X122481904Y-112781904D01*
X122405714Y-112743809D01*
X122367619Y-112705714D01*
X122329523Y-112629523D01*
X122329523Y-112400952D01*
X122367619Y-112324761D01*
X122405714Y-112286666D01*
X122481904Y-112248571D01*
X122634285Y-112248571D01*
X122710476Y-112286666D01*
X123396190Y-112743809D02*
X123320000Y-112781904D01*
X123167619Y-112781904D01*
X123091428Y-112743809D01*
X123053333Y-112705714D01*
X123015238Y-112629523D01*
X123015238Y-112400952D01*
X123053333Y-112324761D01*
X123091428Y-112286666D01*
X123167619Y-112248571D01*
X123320000Y-112248571D01*
X123396190Y-112286666D01*
X126339047Y-115841904D02*
X126834285Y-115841904D01*
X126567619Y-116146666D01*
X126681904Y-116146666D01*
X126758095Y-116184761D01*
X126796190Y-116222857D01*
X126834285Y-116299047D01*
X126834285Y-116489523D01*
X126796190Y-116565714D01*
X126758095Y-116603809D01*
X126681904Y-116641904D01*
X126453333Y-116641904D01*
X126377142Y-116603809D01*
X126339047Y-116565714D01*
X127177142Y-116565714D02*
X127215238Y-116603809D01*
X127177142Y-116641904D01*
X127139047Y-116603809D01*
X127177142Y-116565714D01*
X127177142Y-116641904D01*
X127481904Y-115841904D02*
X127977142Y-115841904D01*
X127710476Y-116146666D01*
X127824761Y-116146666D01*
X127900952Y-116184761D01*
X127939047Y-116222857D01*
X127977142Y-116299047D01*
X127977142Y-116489523D01*
X127939047Y-116565714D01*
X127900952Y-116603809D01*
X127824761Y-116641904D01*
X127596190Y-116641904D01*
X127520000Y-116603809D01*
X127481904Y-116565714D01*
X128205714Y-115841904D02*
X128472380Y-116641904D01*
X128739047Y-115841904D01*
X151305238Y-139827142D02*
X151914761Y-139827142D01*
X150771904Y-141012857D02*
X150886190Y-141050952D01*
X150924285Y-141089047D01*
X150962380Y-141165238D01*
X150962380Y-141279523D01*
X150924285Y-141355714D01*
X150886190Y-141393809D01*
X150810000Y-141431904D01*
X150505238Y-141431904D01*
X150505238Y-140631904D01*
X150771904Y-140631904D01*
X150848095Y-140670000D01*
X150886190Y-140708095D01*
X150924285Y-140784285D01*
X150924285Y-140860476D01*
X150886190Y-140936666D01*
X150848095Y-140974761D01*
X150771904Y-141012857D01*
X150505238Y-141012857D01*
X151648095Y-141431904D02*
X151648095Y-141012857D01*
X151610000Y-140936666D01*
X151533809Y-140898571D01*
X151381428Y-140898571D01*
X151305238Y-140936666D01*
X151648095Y-141393809D02*
X151571904Y-141431904D01*
X151381428Y-141431904D01*
X151305238Y-141393809D01*
X151267142Y-141317619D01*
X151267142Y-141241428D01*
X151305238Y-141165238D01*
X151381428Y-141127142D01*
X151571904Y-141127142D01*
X151648095Y-141089047D01*
X151914761Y-140898571D02*
X152219523Y-140898571D01*
X152029047Y-140631904D02*
X152029047Y-141317619D01*
X152067142Y-141393809D01*
X152143333Y-141431904D01*
X152219523Y-141431904D01*
X151305238Y-142427142D02*
X151914761Y-142427142D01*
X151610000Y-142731904D02*
X151610000Y-142122380D01*
D12*
X110990000Y-165282857D02*
X111204285Y-165354285D01*
X111275714Y-165425714D01*
X111347142Y-165568571D01*
X111347142Y-165782857D01*
X111275714Y-165925714D01*
X111204285Y-165997142D01*
X111061428Y-166068571D01*
X110490000Y-166068571D01*
X110490000Y-164568571D01*
X110990000Y-164568571D01*
X111132857Y-164640000D01*
X111204285Y-164711428D01*
X111275714Y-164854285D01*
X111275714Y-164997142D01*
X111204285Y-165140000D01*
X111132857Y-165211428D01*
X110990000Y-165282857D01*
X110490000Y-165282857D01*
X111847142Y-165068571D02*
X112204285Y-166068571D01*
X112561428Y-165068571D02*
X112204285Y-166068571D01*
X112061428Y-166425714D01*
X111990000Y-166497142D01*
X111847142Y-166568571D01*
X115132857Y-166068571D02*
X114632857Y-165354285D01*
X114275714Y-166068571D02*
X114275714Y-164568571D01*
X114847142Y-164568571D01*
X114990000Y-164640000D01*
X115061428Y-164711428D01*
X115132857Y-164854285D01*
X115132857Y-165068571D01*
X115061428Y-165211428D01*
X114990000Y-165282857D01*
X114847142Y-165354285D01*
X114275714Y-165354285D01*
X116418571Y-166068571D02*
X116418571Y-165282857D01*
X116347142Y-165140000D01*
X116204285Y-165068571D01*
X115918571Y-165068571D01*
X115775714Y-165140000D01*
X116418571Y-165997142D02*
X116275714Y-166068571D01*
X115918571Y-166068571D01*
X115775714Y-165997142D01*
X115704285Y-165854285D01*
X115704285Y-165711428D01*
X115775714Y-165568571D01*
X115918571Y-165497142D01*
X116275714Y-165497142D01*
X116418571Y-165425714D01*
X116918571Y-165068571D02*
X117490000Y-165068571D01*
X117132857Y-164568571D02*
X117132857Y-165854285D01*
X117204285Y-165997142D01*
X117347142Y-166068571D01*
X117490000Y-166068571D01*
X118632857Y-166068571D02*
X118632857Y-165282857D01*
X118561428Y-165140000D01*
X118418571Y-165068571D01*
X118132857Y-165068571D01*
X117990000Y-165140000D01*
X118632857Y-165997142D02*
X118490000Y-166068571D01*
X118132857Y-166068571D01*
X117990000Y-165997142D01*
X117918571Y-165854285D01*
X117918571Y-165711428D01*
X117990000Y-165568571D01*
X118132857Y-165497142D01*
X118490000Y-165497142D01*
X118632857Y-165425714D01*
X119347142Y-166068571D02*
X119347142Y-165068571D01*
X119347142Y-165211428D02*
X119418571Y-165140000D01*
X119561428Y-165068571D01*
X119775714Y-165068571D01*
X119918571Y-165140000D01*
X119990000Y-165282857D01*
X119990000Y-166068571D01*
X119990000Y-165282857D02*
X120061428Y-165140000D01*
X120204285Y-165068571D01*
X120418571Y-165068571D01*
X120561428Y-165140000D01*
X120632857Y-165282857D01*
X120632857Y-166068571D01*
X121990000Y-165068571D02*
X121990000Y-166068571D01*
X121347142Y-165068571D02*
X121347142Y-165854285D01*
X121418571Y-165997142D01*
X121561428Y-166068571D01*
X121775714Y-166068571D01*
X121918571Y-165997142D01*
X121990000Y-165925714D01*
X122632857Y-165997142D02*
X122775714Y-166068571D01*
X123061428Y-166068571D01*
X123204285Y-165997142D01*
X123275714Y-165854285D01*
X123275714Y-165782857D01*
X123204285Y-165640000D01*
X123061428Y-165568571D01*
X122847142Y-165568571D01*
X122704285Y-165497142D01*
X122632857Y-165354285D01*
X122632857Y-165282857D01*
X122704285Y-165140000D01*
X122847142Y-165068571D01*
X123061428Y-165068571D01*
X123204285Y-165140000D01*
X124490000Y-165997142D02*
X124347142Y-166068571D01*
X124061428Y-166068571D01*
X123918571Y-165997142D01*
X123847142Y-165854285D01*
X123847142Y-165282857D01*
X123918571Y-165140000D01*
X124061428Y-165068571D01*
X124347142Y-165068571D01*
X124490000Y-165140000D01*
X124561428Y-165282857D01*
X124561428Y-165425714D01*
X123847142Y-165568571D01*
D10*
X128479047Y-112771904D02*
X128479047Y-111971904D01*
X129012380Y-111971904D02*
X129164761Y-111971904D01*
X129240952Y-112010000D01*
X129317142Y-112086190D01*
X129355238Y-112238571D01*
X129355238Y-112505238D01*
X129317142Y-112657619D01*
X129240952Y-112733809D01*
X129164761Y-112771904D01*
X129012380Y-112771904D01*
X128936190Y-112733809D01*
X128860000Y-112657619D01*
X128821904Y-112505238D01*
X128821904Y-112238571D01*
X128860000Y-112086190D01*
X128936190Y-112010000D01*
X129012380Y-111971904D01*
X129621904Y-111971904D02*
X130117142Y-111971904D01*
X129850476Y-112276666D01*
X129964761Y-112276666D01*
X130040952Y-112314761D01*
X130079047Y-112352857D01*
X130117142Y-112429047D01*
X130117142Y-112619523D01*
X130079047Y-112695714D01*
X130040952Y-112733809D01*
X129964761Y-112771904D01*
X129736190Y-112771904D01*
X129660000Y-112733809D01*
X129621904Y-112695714D01*
X130802857Y-112238571D02*
X130802857Y-112771904D01*
X130612380Y-111933809D02*
X130421904Y-112505238D01*
X130917142Y-112505238D01*
X125809047Y-112771904D02*
X125809047Y-111971904D01*
X126342380Y-111971904D02*
X126494761Y-111971904D01*
X126570952Y-112010000D01*
X126647142Y-112086190D01*
X126685238Y-112238571D01*
X126685238Y-112505238D01*
X126647142Y-112657619D01*
X126570952Y-112733809D01*
X126494761Y-112771904D01*
X126342380Y-112771904D01*
X126266190Y-112733809D01*
X126190000Y-112657619D01*
X126151904Y-112505238D01*
X126151904Y-112238571D01*
X126190000Y-112086190D01*
X126266190Y-112010000D01*
X126342380Y-111971904D01*
X126951904Y-111971904D02*
X127447142Y-111971904D01*
X127180476Y-112276666D01*
X127294761Y-112276666D01*
X127370952Y-112314761D01*
X127409047Y-112352857D01*
X127447142Y-112429047D01*
X127447142Y-112619523D01*
X127409047Y-112695714D01*
X127370952Y-112733809D01*
X127294761Y-112771904D01*
X127066190Y-112771904D01*
X126990000Y-112733809D01*
X126951904Y-112695714D01*
X128170952Y-111971904D02*
X127790000Y-111971904D01*
X127751904Y-112352857D01*
X127790000Y-112314761D01*
X127866190Y-112276666D01*
X128056666Y-112276666D01*
X128132857Y-112314761D01*
X128170952Y-112352857D01*
X128209047Y-112429047D01*
X128209047Y-112619523D01*
X128170952Y-112695714D01*
X128132857Y-112733809D01*
X128056666Y-112771904D01*
X127866190Y-112771904D01*
X127790000Y-112733809D01*
X127751904Y-112695714D01*
X123717619Y-115771904D02*
X123336666Y-115771904D01*
X123298571Y-116152857D01*
X123336666Y-116114761D01*
X123412857Y-116076666D01*
X123603333Y-116076666D01*
X123679523Y-116114761D01*
X123717619Y-116152857D01*
X123755714Y-116229047D01*
X123755714Y-116419523D01*
X123717619Y-116495714D01*
X123679523Y-116533809D01*
X123603333Y-116571904D01*
X123412857Y-116571904D01*
X123336666Y-116533809D01*
X123298571Y-116495714D01*
X123984285Y-115771904D02*
X124250952Y-116571904D01*
X124517619Y-115771904D01*
X124095714Y-112000000D02*
X124019523Y-111961904D01*
X123905238Y-111961904D01*
X123790952Y-112000000D01*
X123714761Y-112076190D01*
X123676666Y-112152380D01*
X123638571Y-112304761D01*
X123638571Y-112419047D01*
X123676666Y-112571428D01*
X123714761Y-112647619D01*
X123790952Y-112723809D01*
X123905238Y-112761904D01*
X123981428Y-112761904D01*
X124095714Y-112723809D01*
X124133809Y-112685714D01*
X124133809Y-112419047D01*
X123981428Y-112419047D01*
X124476666Y-112228571D02*
X124476666Y-112761904D01*
X124476666Y-112304761D02*
X124514761Y-112266666D01*
X124590952Y-112228571D01*
X124705238Y-112228571D01*
X124781428Y-112266666D01*
X124819523Y-112342857D01*
X124819523Y-112761904D01*
X125543333Y-112761904D02*
X125543333Y-111961904D01*
X125543333Y-112723809D02*
X125467142Y-112761904D01*
X125314761Y-112761904D01*
X125238571Y-112723809D01*
X125200476Y-112685714D01*
X125162380Y-112609523D01*
X125162380Y-112380952D01*
X125200476Y-112304761D01*
X125238571Y-112266666D01*
X125314761Y-112228571D01*
X125467142Y-112228571D01*
X125543333Y-112266666D01*
X118271904Y-114852380D02*
X118271904Y-114395238D01*
X119071904Y-114623809D02*
X118271904Y-114623809D01*
X119071904Y-114204761D02*
X118538571Y-113785714D01*
X118538571Y-114204761D02*
X119071904Y-113785714D01*
X117611904Y-114396190D02*
X117230952Y-114662857D01*
X117611904Y-114853333D02*
X116811904Y-114853333D01*
X116811904Y-114548571D01*
X116850000Y-114472380D01*
X116888095Y-114434285D01*
X116964285Y-114396190D01*
X117078571Y-114396190D01*
X117154761Y-114434285D01*
X117192857Y-114472380D01*
X117230952Y-114548571D01*
X117230952Y-114853333D01*
X117611904Y-114129523D02*
X117078571Y-113710476D01*
X117078571Y-114129523D02*
X117611904Y-113710476D01*
X127458095Y-140781904D02*
X127458095Y-139981904D01*
X127915238Y-140781904D01*
X127915238Y-139981904D01*
X128600952Y-140743809D02*
X128524761Y-140781904D01*
X128372380Y-140781904D01*
X128296190Y-140743809D01*
X128258095Y-140667619D01*
X128258095Y-140362857D01*
X128296190Y-140286666D01*
X128372380Y-140248571D01*
X128524761Y-140248571D01*
X128600952Y-140286666D01*
X128639047Y-140362857D01*
X128639047Y-140439047D01*
X128258095Y-140515238D01*
X129096190Y-140781904D02*
X129020000Y-140743809D01*
X128981904Y-140705714D01*
X128943809Y-140629523D01*
X128943809Y-140400952D01*
X128981904Y-140324761D01*
X129020000Y-140286666D01*
X129096190Y-140248571D01*
X129210476Y-140248571D01*
X129286666Y-140286666D01*
X129324761Y-140324761D01*
X129362857Y-140400952D01*
X129362857Y-140629523D01*
X129324761Y-140705714D01*
X129286666Y-140743809D01*
X129210476Y-140781904D01*
X129096190Y-140781904D01*
X129705714Y-140248571D02*
X129705714Y-141048571D01*
X129705714Y-140286666D02*
X129781904Y-140248571D01*
X129934285Y-140248571D01*
X130010476Y-140286666D01*
X130048571Y-140324761D01*
X130086666Y-140400952D01*
X130086666Y-140629523D01*
X130048571Y-140705714D01*
X130010476Y-140743809D01*
X129934285Y-140781904D01*
X129781904Y-140781904D01*
X129705714Y-140743809D01*
X130429523Y-140781904D02*
X130429523Y-140248571D01*
X130429523Y-139981904D02*
X130391428Y-140020000D01*
X130429523Y-140058095D01*
X130467619Y-140020000D01*
X130429523Y-139981904D01*
X130429523Y-140058095D01*
X130734285Y-140781904D02*
X131153333Y-140248571D01*
X130734285Y-140248571D02*
X131153333Y-140781904D01*
X131762857Y-140743809D02*
X131686666Y-140781904D01*
X131534285Y-140781904D01*
X131458095Y-140743809D01*
X131420000Y-140667619D01*
X131420000Y-140362857D01*
X131458095Y-140286666D01*
X131534285Y-140248571D01*
X131686666Y-140248571D01*
X131762857Y-140286666D01*
X131800952Y-140362857D01*
X131800952Y-140439047D01*
X131420000Y-140515238D01*
X132258095Y-140781904D02*
X132181904Y-140743809D01*
X132143809Y-140667619D01*
X132143809Y-139981904D01*
X146985714Y-133580000D02*
X146909523Y-133541904D01*
X146795238Y-133541904D01*
X146680952Y-133580000D01*
X146604761Y-133656190D01*
X146566666Y-133732380D01*
X146528571Y-133884761D01*
X146528571Y-133999047D01*
X146566666Y-134151428D01*
X146604761Y-134227619D01*
X146680952Y-134303809D01*
X146795238Y-134341904D01*
X146871428Y-134341904D01*
X146985714Y-134303809D01*
X147023809Y-134265714D01*
X147023809Y-133999047D01*
X146871428Y-133999047D01*
X147366666Y-133808571D02*
X147366666Y-134341904D01*
X147366666Y-133884761D02*
X147404761Y-133846666D01*
X147480952Y-133808571D01*
X147595238Y-133808571D01*
X147671428Y-133846666D01*
X147709523Y-133922857D01*
X147709523Y-134341904D01*
X148433333Y-134341904D02*
X148433333Y-133541904D01*
X148433333Y-134303809D02*
X148357142Y-134341904D01*
X148204761Y-134341904D01*
X148128571Y-134303809D01*
X148090476Y-134265714D01*
X148052380Y-134189523D01*
X148052380Y-133960952D01*
X148090476Y-133884761D01*
X148128571Y-133846666D01*
X148204761Y-133808571D01*
X148357142Y-133808571D01*
X148433333Y-133846666D01*
X146845714Y-123020000D02*
X146769523Y-122981904D01*
X146655238Y-122981904D01*
X146540952Y-123020000D01*
X146464761Y-123096190D01*
X146426666Y-123172380D01*
X146388571Y-123324761D01*
X146388571Y-123439047D01*
X146426666Y-123591428D01*
X146464761Y-123667619D01*
X146540952Y-123743809D01*
X146655238Y-123781904D01*
X146731428Y-123781904D01*
X146845714Y-123743809D01*
X146883809Y-123705714D01*
X146883809Y-123439047D01*
X146731428Y-123439047D01*
X147226666Y-123248571D02*
X147226666Y-123781904D01*
X147226666Y-123324761D02*
X147264761Y-123286666D01*
X147340952Y-123248571D01*
X147455238Y-123248571D01*
X147531428Y-123286666D01*
X147569523Y-123362857D01*
X147569523Y-123781904D01*
X148293333Y-123781904D02*
X148293333Y-122981904D01*
X148293333Y-123743809D02*
X148217142Y-123781904D01*
X148064761Y-123781904D01*
X147988571Y-123743809D01*
X147950476Y-123705714D01*
X147912380Y-123629523D01*
X147912380Y-123400952D01*
X147950476Y-123324761D01*
X147988571Y-123286666D01*
X148064761Y-123248571D01*
X148217142Y-123248571D01*
X148293333Y-123286666D01*
X147135714Y-112310000D02*
X147059523Y-112271904D01*
X146945238Y-112271904D01*
X146830952Y-112310000D01*
X146754761Y-112386190D01*
X146716666Y-112462380D01*
X146678571Y-112614761D01*
X146678571Y-112729047D01*
X146716666Y-112881428D01*
X146754761Y-112957619D01*
X146830952Y-113033809D01*
X146945238Y-113071904D01*
X147021428Y-113071904D01*
X147135714Y-113033809D01*
X147173809Y-112995714D01*
X147173809Y-112729047D01*
X147021428Y-112729047D01*
X147516666Y-112538571D02*
X147516666Y-113071904D01*
X147516666Y-112614761D02*
X147554761Y-112576666D01*
X147630952Y-112538571D01*
X147745238Y-112538571D01*
X147821428Y-112576666D01*
X147859523Y-112652857D01*
X147859523Y-113071904D01*
X148583333Y-113071904D02*
X148583333Y-112271904D01*
X148583333Y-113033809D02*
X148507142Y-113071904D01*
X148354761Y-113071904D01*
X148278571Y-113033809D01*
X148240476Y-112995714D01*
X148202380Y-112919523D01*
X148202380Y-112690952D01*
X148240476Y-112614761D01*
X148278571Y-112576666D01*
X148354761Y-112538571D01*
X148507142Y-112538571D01*
X148583333Y-112576666D01*
X147385714Y-101790000D02*
X147309523Y-101751904D01*
X147195238Y-101751904D01*
X147080952Y-101790000D01*
X147004761Y-101866190D01*
X146966666Y-101942380D01*
X146928571Y-102094761D01*
X146928571Y-102209047D01*
X146966666Y-102361428D01*
X147004761Y-102437619D01*
X147080952Y-102513809D01*
X147195238Y-102551904D01*
X147271428Y-102551904D01*
X147385714Y-102513809D01*
X147423809Y-102475714D01*
X147423809Y-102209047D01*
X147271428Y-102209047D01*
X147766666Y-102018571D02*
X147766666Y-102551904D01*
X147766666Y-102094761D02*
X147804761Y-102056666D01*
X147880952Y-102018571D01*
X147995238Y-102018571D01*
X148071428Y-102056666D01*
X148109523Y-102132857D01*
X148109523Y-102551904D01*
X148833333Y-102551904D02*
X148833333Y-101751904D01*
X148833333Y-102513809D02*
X148757142Y-102551904D01*
X148604761Y-102551904D01*
X148528571Y-102513809D01*
X148490476Y-102475714D01*
X148452380Y-102399523D01*
X148452380Y-102170952D01*
X148490476Y-102094761D01*
X148528571Y-102056666D01*
X148604761Y-102018571D01*
X148757142Y-102018571D01*
X148833333Y-102056666D01*
X147095714Y-91080000D02*
X147019523Y-91041904D01*
X146905238Y-91041904D01*
X146790952Y-91080000D01*
X146714761Y-91156190D01*
X146676666Y-91232380D01*
X146638571Y-91384761D01*
X146638571Y-91499047D01*
X146676666Y-91651428D01*
X146714761Y-91727619D01*
X146790952Y-91803809D01*
X146905238Y-91841904D01*
X146981428Y-91841904D01*
X147095714Y-91803809D01*
X147133809Y-91765714D01*
X147133809Y-91499047D01*
X146981428Y-91499047D01*
X147476666Y-91308571D02*
X147476666Y-91841904D01*
X147476666Y-91384761D02*
X147514761Y-91346666D01*
X147590952Y-91308571D01*
X147705238Y-91308571D01*
X147781428Y-91346666D01*
X147819523Y-91422857D01*
X147819523Y-91841904D01*
X148543333Y-91841904D02*
X148543333Y-91041904D01*
X148543333Y-91803809D02*
X148467142Y-91841904D01*
X148314761Y-91841904D01*
X148238571Y-91803809D01*
X148200476Y-91765714D01*
X148162380Y-91689523D01*
X148162380Y-91460952D01*
X148200476Y-91384761D01*
X148238571Y-91346666D01*
X148314761Y-91308571D01*
X148467142Y-91308571D01*
X148543333Y-91346666D01*
X152175238Y-75782857D02*
X152289523Y-75820952D01*
X152327619Y-75859047D01*
X152365714Y-75935238D01*
X152365714Y-76049523D01*
X152327619Y-76125714D01*
X152289523Y-76163809D01*
X152213333Y-76201904D01*
X151908571Y-76201904D01*
X151908571Y-75401904D01*
X152175238Y-75401904D01*
X152251428Y-75440000D01*
X152289523Y-75478095D01*
X152327619Y-75554285D01*
X152327619Y-75630476D01*
X152289523Y-75706666D01*
X152251428Y-75744761D01*
X152175238Y-75782857D01*
X151908571Y-75782857D01*
X152708571Y-76201904D02*
X152708571Y-75401904D01*
X152975238Y-75973333D01*
X153241904Y-75401904D01*
X153241904Y-76201904D01*
X153622857Y-75782857D02*
X153889523Y-75782857D01*
X154003809Y-76201904D02*
X153622857Y-76201904D01*
X153622857Y-75401904D01*
X154003809Y-75401904D01*
X154689523Y-75401904D02*
X154537142Y-75401904D01*
X154460952Y-75440000D01*
X154422857Y-75478095D01*
X154346666Y-75592380D01*
X154308571Y-75744761D01*
X154308571Y-76049523D01*
X154346666Y-76125714D01*
X154384761Y-76163809D01*
X154460952Y-76201904D01*
X154613333Y-76201904D01*
X154689523Y-76163809D01*
X154727619Y-76125714D01*
X154765714Y-76049523D01*
X154765714Y-75859047D01*
X154727619Y-75782857D01*
X154689523Y-75744761D01*
X154613333Y-75706666D01*
X154460952Y-75706666D01*
X154384761Y-75744761D01*
X154346666Y-75782857D01*
X154308571Y-75859047D01*
X155222857Y-75744761D02*
X155146666Y-75706666D01*
X155108571Y-75668571D01*
X155070476Y-75592380D01*
X155070476Y-75554285D01*
X155108571Y-75478095D01*
X155146666Y-75440000D01*
X155222857Y-75401904D01*
X155375238Y-75401904D01*
X155451428Y-75440000D01*
X155489523Y-75478095D01*
X155527619Y-75554285D01*
X155527619Y-75592380D01*
X155489523Y-75668571D01*
X155451428Y-75706666D01*
X155375238Y-75744761D01*
X155222857Y-75744761D01*
X155146666Y-75782857D01*
X155108571Y-75820952D01*
X155070476Y-75897142D01*
X155070476Y-76049523D01*
X155108571Y-76125714D01*
X155146666Y-76163809D01*
X155222857Y-76201904D01*
X155375238Y-76201904D01*
X155451428Y-76163809D01*
X155489523Y-76125714D01*
X155527619Y-76049523D01*
X155527619Y-75897142D01*
X155489523Y-75820952D01*
X155451428Y-75782857D01*
X155375238Y-75744761D01*
X156022857Y-75401904D02*
X156099047Y-75401904D01*
X156175238Y-75440000D01*
X156213333Y-75478095D01*
X156251428Y-75554285D01*
X156289523Y-75706666D01*
X156289523Y-75897142D01*
X156251428Y-76049523D01*
X156213333Y-76125714D01*
X156175238Y-76163809D01*
X156099047Y-76201904D01*
X156022857Y-76201904D01*
X155946666Y-76163809D01*
X155908571Y-76125714D01*
X155870476Y-76049523D01*
X155832380Y-75897142D01*
X155832380Y-75706666D01*
X155870476Y-75554285D01*
X155908571Y-75478095D01*
X155946666Y-75440000D01*
X156022857Y-75401904D01*
X151295476Y-146607142D02*
X151905000Y-146607142D01*
X151295476Y-149207142D02*
X151905000Y-149207142D01*
X151600238Y-149511904D02*
X151600238Y-148902380D01*
X146473333Y-129571904D02*
X146740000Y-130371904D01*
X147006666Y-129571904D01*
X147730476Y-130295714D02*
X147692380Y-130333809D01*
X147578095Y-130371904D01*
X147501904Y-130371904D01*
X147387619Y-130333809D01*
X147311428Y-130257619D01*
X147273333Y-130181428D01*
X147235238Y-130029047D01*
X147235238Y-129914761D01*
X147273333Y-129762380D01*
X147311428Y-129686190D01*
X147387619Y-129610000D01*
X147501904Y-129571904D01*
X147578095Y-129571904D01*
X147692380Y-129610000D01*
X147730476Y-129648095D01*
X148530476Y-130295714D02*
X148492380Y-130333809D01*
X148378095Y-130371904D01*
X148301904Y-130371904D01*
X148187619Y-130333809D01*
X148111428Y-130257619D01*
X148073333Y-130181428D01*
X148035238Y-130029047D01*
X148035238Y-129914761D01*
X148073333Y-129762380D01*
X148111428Y-129686190D01*
X148187619Y-129610000D01*
X148301904Y-129571904D01*
X148378095Y-129571904D01*
X148492380Y-129610000D01*
X148530476Y-129648095D01*
X146143333Y-119011904D02*
X146410000Y-119811904D01*
X146676666Y-119011904D01*
X147400476Y-119735714D02*
X147362380Y-119773809D01*
X147248095Y-119811904D01*
X147171904Y-119811904D01*
X147057619Y-119773809D01*
X146981428Y-119697619D01*
X146943333Y-119621428D01*
X146905238Y-119469047D01*
X146905238Y-119354761D01*
X146943333Y-119202380D01*
X146981428Y-119126190D01*
X147057619Y-119050000D01*
X147171904Y-119011904D01*
X147248095Y-119011904D01*
X147362380Y-119050000D01*
X147400476Y-119088095D01*
X148200476Y-119735714D02*
X148162380Y-119773809D01*
X148048095Y-119811904D01*
X147971904Y-119811904D01*
X147857619Y-119773809D01*
X147781428Y-119697619D01*
X147743333Y-119621428D01*
X147705238Y-119469047D01*
X147705238Y-119354761D01*
X147743333Y-119202380D01*
X147781428Y-119126190D01*
X147857619Y-119050000D01*
X147971904Y-119011904D01*
X148048095Y-119011904D01*
X148162380Y-119050000D01*
X148200476Y-119088095D01*
X146563333Y-108321904D02*
X146830000Y-109121904D01*
X147096666Y-108321904D01*
X147820476Y-109045714D02*
X147782380Y-109083809D01*
X147668095Y-109121904D01*
X147591904Y-109121904D01*
X147477619Y-109083809D01*
X147401428Y-109007619D01*
X147363333Y-108931428D01*
X147325238Y-108779047D01*
X147325238Y-108664761D01*
X147363333Y-108512380D01*
X147401428Y-108436190D01*
X147477619Y-108360000D01*
X147591904Y-108321904D01*
X147668095Y-108321904D01*
X147782380Y-108360000D01*
X147820476Y-108398095D01*
X148620476Y-109045714D02*
X148582380Y-109083809D01*
X148468095Y-109121904D01*
X148391904Y-109121904D01*
X148277619Y-109083809D01*
X148201428Y-109007619D01*
X148163333Y-108931428D01*
X148125238Y-108779047D01*
X148125238Y-108664761D01*
X148163333Y-108512380D01*
X148201428Y-108436190D01*
X148277619Y-108360000D01*
X148391904Y-108321904D01*
X148468095Y-108321904D01*
X148582380Y-108360000D01*
X148620476Y-108398095D01*
X146873333Y-97781904D02*
X147140000Y-98581904D01*
X147406666Y-97781904D01*
X148130476Y-98505714D02*
X148092380Y-98543809D01*
X147978095Y-98581904D01*
X147901904Y-98581904D01*
X147787619Y-98543809D01*
X147711428Y-98467619D01*
X147673333Y-98391428D01*
X147635238Y-98239047D01*
X147635238Y-98124761D01*
X147673333Y-97972380D01*
X147711428Y-97896190D01*
X147787619Y-97820000D01*
X147901904Y-97781904D01*
X147978095Y-97781904D01*
X148092380Y-97820000D01*
X148130476Y-97858095D01*
X148930476Y-98505714D02*
X148892380Y-98543809D01*
X148778095Y-98581904D01*
X148701904Y-98581904D01*
X148587619Y-98543809D01*
X148511428Y-98467619D01*
X148473333Y-98391428D01*
X148435238Y-98239047D01*
X148435238Y-98124761D01*
X148473333Y-97972380D01*
X148511428Y-97896190D01*
X148587619Y-97820000D01*
X148701904Y-97781904D01*
X148778095Y-97781904D01*
X148892380Y-97820000D01*
X148930476Y-97858095D01*
X146513333Y-87041904D02*
X146780000Y-87841904D01*
X147046666Y-87041904D01*
X147770476Y-87765714D02*
X147732380Y-87803809D01*
X147618095Y-87841904D01*
X147541904Y-87841904D01*
X147427619Y-87803809D01*
X147351428Y-87727619D01*
X147313333Y-87651428D01*
X147275238Y-87499047D01*
X147275238Y-87384761D01*
X147313333Y-87232380D01*
X147351428Y-87156190D01*
X147427619Y-87080000D01*
X147541904Y-87041904D01*
X147618095Y-87041904D01*
X147732380Y-87080000D01*
X147770476Y-87118095D01*
X148570476Y-87765714D02*
X148532380Y-87803809D01*
X148418095Y-87841904D01*
X148341904Y-87841904D01*
X148227619Y-87803809D01*
X148151428Y-87727619D01*
X148113333Y-87651428D01*
X148075238Y-87499047D01*
X148075238Y-87384761D01*
X148113333Y-87232380D01*
X148151428Y-87156190D01*
X148227619Y-87080000D01*
X148341904Y-87041904D01*
X148418095Y-87041904D01*
X148532380Y-87080000D01*
X148570476Y-87118095D01*
X146309047Y-132201904D02*
X146309047Y-131401904D01*
X146842380Y-131401904D02*
X146994761Y-131401904D01*
X147070952Y-131440000D01*
X147147142Y-131516190D01*
X147185238Y-131668571D01*
X147185238Y-131935238D01*
X147147142Y-132087619D01*
X147070952Y-132163809D01*
X146994761Y-132201904D01*
X146842380Y-132201904D01*
X146766190Y-132163809D01*
X146690000Y-132087619D01*
X146651904Y-131935238D01*
X146651904Y-131668571D01*
X146690000Y-131516190D01*
X146766190Y-131440000D01*
X146842380Y-131401904D01*
X147490000Y-131478095D02*
X147528095Y-131440000D01*
X147604285Y-131401904D01*
X147794761Y-131401904D01*
X147870952Y-131440000D01*
X147909047Y-131478095D01*
X147947142Y-131554285D01*
X147947142Y-131630476D01*
X147909047Y-131744761D01*
X147451904Y-132201904D01*
X147947142Y-132201904D01*
X148670952Y-131401904D02*
X148290000Y-131401904D01*
X148251904Y-131782857D01*
X148290000Y-131744761D01*
X148366190Y-131706666D01*
X148556666Y-131706666D01*
X148632857Y-131744761D01*
X148670952Y-131782857D01*
X148709047Y-131859047D01*
X148709047Y-132049523D01*
X148670952Y-132125714D01*
X148632857Y-132163809D01*
X148556666Y-132201904D01*
X148366190Y-132201904D01*
X148290000Y-132163809D01*
X148251904Y-132125714D01*
X146319047Y-128331904D02*
X146319047Y-127531904D01*
X146852380Y-127531904D02*
X147004761Y-127531904D01*
X147080952Y-127570000D01*
X147157142Y-127646190D01*
X147195238Y-127798571D01*
X147195238Y-128065238D01*
X147157142Y-128217619D01*
X147080952Y-128293809D01*
X147004761Y-128331904D01*
X146852380Y-128331904D01*
X146776190Y-128293809D01*
X146700000Y-128217619D01*
X146661904Y-128065238D01*
X146661904Y-127798571D01*
X146700000Y-127646190D01*
X146776190Y-127570000D01*
X146852380Y-127531904D01*
X147461904Y-127531904D02*
X147957142Y-127531904D01*
X147690476Y-127836666D01*
X147804761Y-127836666D01*
X147880952Y-127874761D01*
X147919047Y-127912857D01*
X147957142Y-127989047D01*
X147957142Y-128179523D01*
X147919047Y-128255714D01*
X147880952Y-128293809D01*
X147804761Y-128331904D01*
X147576190Y-128331904D01*
X147500000Y-128293809D01*
X147461904Y-128255714D01*
X148261904Y-127608095D02*
X148300000Y-127570000D01*
X148376190Y-127531904D01*
X148566666Y-127531904D01*
X148642857Y-127570000D01*
X148680952Y-127608095D01*
X148719047Y-127684285D01*
X148719047Y-127760476D01*
X148680952Y-127874761D01*
X148223809Y-128331904D01*
X148719047Y-128331904D01*
X146099047Y-121651904D02*
X146099047Y-120851904D01*
X146632380Y-120851904D02*
X146784761Y-120851904D01*
X146860952Y-120890000D01*
X146937142Y-120966190D01*
X146975238Y-121118571D01*
X146975238Y-121385238D01*
X146937142Y-121537619D01*
X146860952Y-121613809D01*
X146784761Y-121651904D01*
X146632380Y-121651904D01*
X146556190Y-121613809D01*
X146480000Y-121537619D01*
X146441904Y-121385238D01*
X146441904Y-121118571D01*
X146480000Y-120966190D01*
X146556190Y-120890000D01*
X146632380Y-120851904D01*
X147280000Y-120928095D02*
X147318095Y-120890000D01*
X147394285Y-120851904D01*
X147584761Y-120851904D01*
X147660952Y-120890000D01*
X147699047Y-120928095D01*
X147737142Y-121004285D01*
X147737142Y-121080476D01*
X147699047Y-121194761D01*
X147241904Y-121651904D01*
X147737142Y-121651904D01*
X148422857Y-120851904D02*
X148270476Y-120851904D01*
X148194285Y-120890000D01*
X148156190Y-120928095D01*
X148080000Y-121042380D01*
X148041904Y-121194761D01*
X148041904Y-121499523D01*
X148080000Y-121575714D01*
X148118095Y-121613809D01*
X148194285Y-121651904D01*
X148346666Y-121651904D01*
X148422857Y-121613809D01*
X148460952Y-121575714D01*
X148499047Y-121499523D01*
X148499047Y-121309047D01*
X148460952Y-121232857D01*
X148422857Y-121194761D01*
X148346666Y-121156666D01*
X148194285Y-121156666D01*
X148118095Y-121194761D01*
X148080000Y-121232857D01*
X148041904Y-121309047D01*
X146279047Y-117661904D02*
X146279047Y-116861904D01*
X146812380Y-116861904D02*
X146964761Y-116861904D01*
X147040952Y-116900000D01*
X147117142Y-116976190D01*
X147155238Y-117128571D01*
X147155238Y-117395238D01*
X147117142Y-117547619D01*
X147040952Y-117623809D01*
X146964761Y-117661904D01*
X146812380Y-117661904D01*
X146736190Y-117623809D01*
X146660000Y-117547619D01*
X146621904Y-117395238D01*
X146621904Y-117128571D01*
X146660000Y-116976190D01*
X146736190Y-116900000D01*
X146812380Y-116861904D01*
X147460000Y-116938095D02*
X147498095Y-116900000D01*
X147574285Y-116861904D01*
X147764761Y-116861904D01*
X147840952Y-116900000D01*
X147879047Y-116938095D01*
X147917142Y-117014285D01*
X147917142Y-117090476D01*
X147879047Y-117204761D01*
X147421904Y-117661904D01*
X147917142Y-117661904D01*
X148183809Y-116861904D02*
X148717142Y-116861904D01*
X148374285Y-117661904D01*
X146499047Y-111031904D02*
X146499047Y-110231904D01*
X147032380Y-110231904D02*
X147184761Y-110231904D01*
X147260952Y-110270000D01*
X147337142Y-110346190D01*
X147375238Y-110498571D01*
X147375238Y-110765238D01*
X147337142Y-110917619D01*
X147260952Y-110993809D01*
X147184761Y-111031904D01*
X147032380Y-111031904D01*
X146956190Y-110993809D01*
X146880000Y-110917619D01*
X146841904Y-110765238D01*
X146841904Y-110498571D01*
X146880000Y-110346190D01*
X146956190Y-110270000D01*
X147032380Y-110231904D01*
X148137142Y-111031904D02*
X147680000Y-111031904D01*
X147908571Y-111031904D02*
X147908571Y-110231904D01*
X147832380Y-110346190D01*
X147756190Y-110422380D01*
X147680000Y-110460476D01*
X148403809Y-110231904D02*
X148899047Y-110231904D01*
X148632380Y-110536666D01*
X148746666Y-110536666D01*
X148822857Y-110574761D01*
X148860952Y-110612857D01*
X148899047Y-110689047D01*
X148899047Y-110879523D01*
X148860952Y-110955714D01*
X148822857Y-110993809D01*
X148746666Y-111031904D01*
X148518095Y-111031904D01*
X148441904Y-110993809D01*
X148403809Y-110955714D01*
X146529047Y-107181904D02*
X146529047Y-106381904D01*
X147062380Y-106381904D02*
X147214761Y-106381904D01*
X147290952Y-106420000D01*
X147367142Y-106496190D01*
X147405238Y-106648571D01*
X147405238Y-106915238D01*
X147367142Y-107067619D01*
X147290952Y-107143809D01*
X147214761Y-107181904D01*
X147062380Y-107181904D01*
X146986190Y-107143809D01*
X146910000Y-107067619D01*
X146871904Y-106915238D01*
X146871904Y-106648571D01*
X146910000Y-106496190D01*
X146986190Y-106420000D01*
X147062380Y-106381904D01*
X147900476Y-106381904D02*
X147976666Y-106381904D01*
X148052857Y-106420000D01*
X148090952Y-106458095D01*
X148129047Y-106534285D01*
X148167142Y-106686666D01*
X148167142Y-106877142D01*
X148129047Y-107029523D01*
X148090952Y-107105714D01*
X148052857Y-107143809D01*
X147976666Y-107181904D01*
X147900476Y-107181904D01*
X147824285Y-107143809D01*
X147786190Y-107105714D01*
X147748095Y-107029523D01*
X147710000Y-106877142D01*
X147710000Y-106686666D01*
X147748095Y-106534285D01*
X147786190Y-106458095D01*
X147824285Y-106420000D01*
X147900476Y-106381904D01*
X148852857Y-106648571D02*
X148852857Y-107181904D01*
X148662380Y-106343809D02*
X148471904Y-106915238D01*
X148967142Y-106915238D01*
X146719047Y-100581904D02*
X146719047Y-99781904D01*
X147252380Y-99781904D02*
X147404761Y-99781904D01*
X147480952Y-99820000D01*
X147557142Y-99896190D01*
X147595238Y-100048571D01*
X147595238Y-100315238D01*
X147557142Y-100467619D01*
X147480952Y-100543809D01*
X147404761Y-100581904D01*
X147252380Y-100581904D01*
X147176190Y-100543809D01*
X147100000Y-100467619D01*
X147061904Y-100315238D01*
X147061904Y-100048571D01*
X147100000Y-99896190D01*
X147176190Y-99820000D01*
X147252380Y-99781904D01*
X148357142Y-100581904D02*
X147900000Y-100581904D01*
X148128571Y-100581904D02*
X148128571Y-99781904D01*
X148052380Y-99896190D01*
X147976190Y-99972380D01*
X147900000Y-100010476D01*
X149042857Y-99781904D02*
X148890476Y-99781904D01*
X148814285Y-99820000D01*
X148776190Y-99858095D01*
X148700000Y-99972380D01*
X148661904Y-100124761D01*
X148661904Y-100429523D01*
X148700000Y-100505714D01*
X148738095Y-100543809D01*
X148814285Y-100581904D01*
X148966666Y-100581904D01*
X149042857Y-100543809D01*
X149080952Y-100505714D01*
X149119047Y-100429523D01*
X149119047Y-100239047D01*
X149080952Y-100162857D01*
X149042857Y-100124761D01*
X148966666Y-100086666D01*
X148814285Y-100086666D01*
X148738095Y-100124761D01*
X148700000Y-100162857D01*
X148661904Y-100239047D01*
X146669047Y-96651904D02*
X146669047Y-95851904D01*
X147202380Y-95851904D02*
X147354761Y-95851904D01*
X147430952Y-95890000D01*
X147507142Y-95966190D01*
X147545238Y-96118571D01*
X147545238Y-96385238D01*
X147507142Y-96537619D01*
X147430952Y-96613809D01*
X147354761Y-96651904D01*
X147202380Y-96651904D01*
X147126190Y-96613809D01*
X147050000Y-96537619D01*
X147011904Y-96385238D01*
X147011904Y-96118571D01*
X147050000Y-95966190D01*
X147126190Y-95890000D01*
X147202380Y-95851904D01*
X148307142Y-96651904D02*
X147850000Y-96651904D01*
X148078571Y-96651904D02*
X148078571Y-95851904D01*
X148002380Y-95966190D01*
X147926190Y-96042380D01*
X147850000Y-96080476D01*
X148573809Y-95851904D02*
X149107142Y-95851904D01*
X148764285Y-96651904D01*
X146419047Y-89601904D02*
X146419047Y-88801904D01*
X146952380Y-88801904D02*
X147104761Y-88801904D01*
X147180952Y-88840000D01*
X147257142Y-88916190D01*
X147295238Y-89068571D01*
X147295238Y-89335238D01*
X147257142Y-89487619D01*
X147180952Y-89563809D01*
X147104761Y-89601904D01*
X146952380Y-89601904D01*
X146876190Y-89563809D01*
X146800000Y-89487619D01*
X146761904Y-89335238D01*
X146761904Y-89068571D01*
X146800000Y-88916190D01*
X146876190Y-88840000D01*
X146952380Y-88801904D01*
X148057142Y-89601904D02*
X147600000Y-89601904D01*
X147828571Y-89601904D02*
X147828571Y-88801904D01*
X147752380Y-88916190D01*
X147676190Y-88992380D01*
X147600000Y-89030476D01*
X148514285Y-89144761D02*
X148438095Y-89106666D01*
X148400000Y-89068571D01*
X148361904Y-88992380D01*
X148361904Y-88954285D01*
X148400000Y-88878095D01*
X148438095Y-88840000D01*
X148514285Y-88801904D01*
X148666666Y-88801904D01*
X148742857Y-88840000D01*
X148780952Y-88878095D01*
X148819047Y-88954285D01*
X148819047Y-88992380D01*
X148780952Y-89068571D01*
X148742857Y-89106666D01*
X148666666Y-89144761D01*
X148514285Y-89144761D01*
X148438095Y-89182857D01*
X148400000Y-89220952D01*
X148361904Y-89297142D01*
X148361904Y-89449523D01*
X148400000Y-89525714D01*
X148438095Y-89563809D01*
X148514285Y-89601904D01*
X148666666Y-89601904D01*
X148742857Y-89563809D01*
X148780952Y-89525714D01*
X148819047Y-89449523D01*
X148819047Y-89297142D01*
X148780952Y-89220952D01*
X148742857Y-89182857D01*
X148666666Y-89144761D01*
X146439047Y-85991904D02*
X146439047Y-85191904D01*
X146972380Y-85191904D02*
X147124761Y-85191904D01*
X147200952Y-85230000D01*
X147277142Y-85306190D01*
X147315238Y-85458571D01*
X147315238Y-85725238D01*
X147277142Y-85877619D01*
X147200952Y-85953809D01*
X147124761Y-85991904D01*
X146972380Y-85991904D01*
X146896190Y-85953809D01*
X146820000Y-85877619D01*
X146781904Y-85725238D01*
X146781904Y-85458571D01*
X146820000Y-85306190D01*
X146896190Y-85230000D01*
X146972380Y-85191904D01*
X148077142Y-85991904D02*
X147620000Y-85991904D01*
X147848571Y-85991904D02*
X147848571Y-85191904D01*
X147772380Y-85306190D01*
X147696190Y-85382380D01*
X147620000Y-85420476D01*
X148458095Y-85991904D02*
X148610476Y-85991904D01*
X148686666Y-85953809D01*
X148724761Y-85915714D01*
X148800952Y-85801428D01*
X148839047Y-85649047D01*
X148839047Y-85344285D01*
X148800952Y-85268095D01*
X148762857Y-85230000D01*
X148686666Y-85191904D01*
X148534285Y-85191904D01*
X148458095Y-85230000D01*
X148420000Y-85268095D01*
X148381904Y-85344285D01*
X148381904Y-85534761D01*
X148420000Y-85610952D01*
X148458095Y-85649047D01*
X148534285Y-85687142D01*
X148686666Y-85687142D01*
X148762857Y-85649047D01*
X148800952Y-85610952D01*
X148839047Y-85534761D01*
X131405714Y-138610000D02*
X131329523Y-138571904D01*
X131215238Y-138571904D01*
X131100952Y-138610000D01*
X131024761Y-138686190D01*
X130986666Y-138762380D01*
X130948571Y-138914761D01*
X130948571Y-139029047D01*
X130986666Y-139181428D01*
X131024761Y-139257619D01*
X131100952Y-139333809D01*
X131215238Y-139371904D01*
X131291428Y-139371904D01*
X131405714Y-139333809D01*
X131443809Y-139295714D01*
X131443809Y-139029047D01*
X131291428Y-139029047D01*
X131786666Y-138838571D02*
X131786666Y-139371904D01*
X131786666Y-138914761D02*
X131824761Y-138876666D01*
X131900952Y-138838571D01*
X132015238Y-138838571D01*
X132091428Y-138876666D01*
X132129523Y-138952857D01*
X132129523Y-139371904D01*
X132853333Y-139371904D02*
X132853333Y-138571904D01*
X132853333Y-139333809D02*
X132777142Y-139371904D01*
X132624761Y-139371904D01*
X132548571Y-139333809D01*
X132510476Y-139295714D01*
X132472380Y-139219523D01*
X132472380Y-138990952D01*
X132510476Y-138914761D01*
X132548571Y-138876666D01*
X132624761Y-138838571D01*
X132777142Y-138838571D01*
X132853333Y-138876666D01*
X129547619Y-138551904D02*
X129166666Y-138551904D01*
X129128571Y-138932857D01*
X129166666Y-138894761D01*
X129242857Y-138856666D01*
X129433333Y-138856666D01*
X129509523Y-138894761D01*
X129547619Y-138932857D01*
X129585714Y-139009047D01*
X129585714Y-139199523D01*
X129547619Y-139275714D01*
X129509523Y-139313809D01*
X129433333Y-139351904D01*
X129242857Y-139351904D01*
X129166666Y-139313809D01*
X129128571Y-139275714D01*
X129814285Y-138551904D02*
X130080952Y-139351904D01*
X130347619Y-138551904D01*
X126800000Y-139351904D02*
X126800000Y-138551904D01*
X127333333Y-138551904D02*
X127485714Y-138551904D01*
X127561904Y-138590000D01*
X127638095Y-138666190D01*
X127676190Y-138818571D01*
X127676190Y-139085238D01*
X127638095Y-139237619D01*
X127561904Y-139313809D01*
X127485714Y-139351904D01*
X127333333Y-139351904D01*
X127257142Y-139313809D01*
X127180952Y-139237619D01*
X127142857Y-139085238D01*
X127142857Y-138818571D01*
X127180952Y-138666190D01*
X127257142Y-138590000D01*
X127333333Y-138551904D01*
X127980952Y-138628095D02*
X128019047Y-138590000D01*
X128095238Y-138551904D01*
X128285714Y-138551904D01*
X128361904Y-138590000D01*
X128400000Y-138628095D01*
X128438095Y-138704285D01*
X128438095Y-138780476D01*
X128400000Y-138894761D01*
X127942857Y-139351904D01*
X128438095Y-139351904D01*
X120751904Y-101961904D02*
X120485238Y-101580952D01*
X120294761Y-101961904D02*
X120294761Y-101161904D01*
X120599523Y-101161904D01*
X120675714Y-101200000D01*
X120713809Y-101238095D01*
X120751904Y-101314285D01*
X120751904Y-101428571D01*
X120713809Y-101504761D01*
X120675714Y-101542857D01*
X120599523Y-101580952D01*
X120294761Y-101580952D01*
X121056666Y-101923809D02*
X121170952Y-101961904D01*
X121361428Y-101961904D01*
X121437619Y-101923809D01*
X121475714Y-101885714D01*
X121513809Y-101809523D01*
X121513809Y-101733333D01*
X121475714Y-101657142D01*
X121437619Y-101619047D01*
X121361428Y-101580952D01*
X121209047Y-101542857D01*
X121132857Y-101504761D01*
X121094761Y-101466666D01*
X121056666Y-101390476D01*
X121056666Y-101314285D01*
X121094761Y-101238095D01*
X121132857Y-101200000D01*
X121209047Y-101161904D01*
X121399523Y-101161904D01*
X121513809Y-101200000D01*
X121742380Y-101161904D02*
X122199523Y-101161904D01*
X121970952Y-101961904D02*
X121970952Y-101161904D01*
X100988571Y-128441904D02*
X100988571Y-127641904D01*
X101293333Y-127641904D01*
X101369523Y-127680000D01*
X101407619Y-127718095D01*
X101445714Y-127794285D01*
X101445714Y-127908571D01*
X101407619Y-127984761D01*
X101369523Y-128022857D01*
X101293333Y-128060952D01*
X100988571Y-128060952D01*
X101712380Y-127641904D02*
X101902857Y-128441904D01*
X102055238Y-127870476D01*
X102207619Y-128441904D01*
X102398095Y-127641904D01*
X103160000Y-128441904D02*
X102893333Y-128060952D01*
X102702857Y-128441904D02*
X102702857Y-127641904D01*
X103007619Y-127641904D01*
X103083809Y-127680000D01*
X103121904Y-127718095D01*
X103160000Y-127794285D01*
X103160000Y-127908571D01*
X103121904Y-127984761D01*
X103083809Y-128022857D01*
X103007619Y-128060952D01*
X102702857Y-128060952D01*
X100360000Y-129703809D02*
X100474285Y-129741904D01*
X100664761Y-129741904D01*
X100740952Y-129703809D01*
X100779047Y-129665714D01*
X100817142Y-129589523D01*
X100817142Y-129513333D01*
X100779047Y-129437142D01*
X100740952Y-129399047D01*
X100664761Y-129360952D01*
X100512380Y-129322857D01*
X100436190Y-129284761D01*
X100398095Y-129246666D01*
X100360000Y-129170476D01*
X100360000Y-129094285D01*
X100398095Y-129018095D01*
X100436190Y-128980000D01*
X100512380Y-128941904D01*
X100702857Y-128941904D01*
X100817142Y-128980000D01*
X101083809Y-128941904D02*
X101274285Y-129741904D01*
X101426666Y-129170476D01*
X101579047Y-129741904D01*
X101769523Y-128941904D01*
X102074285Y-129741904D02*
X102074285Y-128941904D01*
X102340952Y-128941904D02*
X102798095Y-128941904D01*
X102569523Y-129741904D02*
X102569523Y-128941904D01*
X103521904Y-129665714D02*
X103483809Y-129703809D01*
X103369523Y-129741904D01*
X103293333Y-129741904D01*
X103179047Y-129703809D01*
X103102857Y-129627619D01*
X103064761Y-129551428D01*
X103026666Y-129399047D01*
X103026666Y-129284761D01*
X103064761Y-129132380D01*
X103102857Y-129056190D01*
X103179047Y-128980000D01*
X103293333Y-128941904D01*
X103369523Y-128941904D01*
X103483809Y-128980000D01*
X103521904Y-129018095D01*
X103864761Y-129741904D02*
X103864761Y-128941904D01*
X103864761Y-129322857D02*
X104321904Y-129322857D01*
X104321904Y-129741904D02*
X104321904Y-128941904D01*
D13*
G36*
X138266460Y-139198988D02*
G01*
X138315375Y-139217769D01*
X138327492Y-139223384D01*
X138398472Y-139265927D01*
X138446502Y-139319496D01*
X138476346Y-139391516D01*
X138491705Y-139479242D01*
X138507345Y-139568545D01*
X138531309Y-139625508D01*
X138563965Y-139650706D01*
X138598561Y-139647681D01*
X138632456Y-139620108D01*
X138649071Y-139567499D01*
X138649054Y-139487579D01*
X138647769Y-139474160D01*
X138646864Y-139411110D01*
X138662749Y-139359736D01*
X138677045Y-139334246D01*
X138715571Y-139282446D01*
X138758141Y-139253447D01*
X138816004Y-139241451D01*
X138859935Y-139240000D01*
X138935565Y-139251599D01*
X138990068Y-139288474D01*
X139027909Y-139353743D01*
X139029711Y-139358533D01*
X139042535Y-139436836D01*
X139022362Y-139513697D01*
X138968822Y-139590246D01*
X138946455Y-139613074D01*
X138892926Y-139668804D01*
X138867514Y-139706575D01*
X138869958Y-139726916D01*
X138888316Y-139731066D01*
X138910805Y-139717445D01*
X138938674Y-139683177D01*
X138949263Y-139665891D01*
X139005758Y-139599284D01*
X139060866Y-139564291D01*
X139150631Y-139533400D01*
X139228322Y-139533301D01*
X139292792Y-139563777D01*
X139338062Y-139616344D01*
X139366990Y-139691184D01*
X139365069Y-139764271D01*
X139335235Y-139831510D01*
X139280422Y-139888805D01*
X139203568Y-139932061D01*
X139107608Y-139957181D01*
X139092372Y-139959066D01*
X139030531Y-139966836D01*
X138996875Y-139976833D01*
X138985841Y-139994075D01*
X138991863Y-140023581D01*
X138999047Y-140043230D01*
X139010194Y-140066188D01*
X139027404Y-140079212D01*
X139059244Y-140085096D01*
X139114280Y-140086633D01*
X139132230Y-140086666D01*
X139221368Y-140093466D01*
X139286379Y-140116408D01*
X139334679Y-140159309D01*
X139363871Y-140205854D01*
X139386389Y-140280431D01*
X139375977Y-140350207D01*
X139333526Y-140412123D01*
X139294658Y-140443175D01*
X139220900Y-140472793D01*
X139140502Y-140472803D01*
X139060594Y-140444539D01*
X138988303Y-140389333D01*
X138984305Y-140385130D01*
X138949404Y-140357061D01*
X138925699Y-140356262D01*
X138913370Y-140377975D01*
X138912598Y-140417444D01*
X138923563Y-140469915D01*
X138946445Y-140530630D01*
X138976640Y-140587196D01*
X139016460Y-140652356D01*
X139064071Y-140730813D01*
X139109900Y-140806787D01*
X139114712Y-140814800D01*
X139180555Y-140923121D01*
X139232918Y-141005759D01*
X139274628Y-141066710D01*
X139308515Y-141109970D01*
X139337406Y-141139536D01*
X139353712Y-141152502D01*
X139395977Y-141179018D01*
X139427413Y-141183742D01*
X139461452Y-141165856D01*
X139488271Y-141144304D01*
X139530947Y-141092120D01*
X139574431Y-141007028D01*
X139592589Y-140962271D01*
X139642417Y-140853462D01*
X139703114Y-140765184D01*
X139779874Y-140692981D01*
X139877891Y-140632396D01*
X140002360Y-140578975D01*
X140064657Y-140557312D01*
X140254117Y-140510139D01*
X140467793Y-140485354D01*
X140704438Y-140483014D01*
X140962803Y-140503179D01*
X141031466Y-140511855D01*
X141266020Y-140559576D01*
X141501181Y-140638320D01*
X141730828Y-140745920D01*
X141796088Y-140782544D01*
X141859904Y-140822756D01*
X141902569Y-140859245D01*
X141934000Y-140901757D01*
X141952721Y-140936463D01*
X141975092Y-140986670D01*
X141988421Y-141034345D01*
X141994885Y-141091338D01*
X141996661Y-141169495D01*
X141996666Y-141175587D01*
X141995513Y-141252091D01*
X141990302Y-141306955D01*
X141978404Y-141352372D01*
X141957191Y-141400540D01*
X141941726Y-141430496D01*
X141895867Y-141501175D01*
X141827030Y-141585950D01*
X141740149Y-141679730D01*
X141640152Y-141777424D01*
X141531972Y-141873942D01*
X141437372Y-141951174D01*
X141227221Y-142104078D01*
X141022151Y-142231374D01*
X140824066Y-142332273D01*
X140634865Y-142405983D01*
X140456450Y-142451714D01*
X140290723Y-142468676D01*
X140201733Y-142465076D01*
X140105504Y-142449269D01*
X140023938Y-142419656D01*
X139947510Y-142371249D01*
X139866694Y-142299062D01*
X139847551Y-142279671D01*
X139797724Y-142230802D01*
X139754697Y-142193048D01*
X139725055Y-142172000D01*
X139717734Y-142169466D01*
X139684605Y-142183355D01*
X139633979Y-142224209D01*
X139567137Y-142290810D01*
X139485360Y-142381941D01*
X139448374Y-142425441D01*
X139393160Y-142493401D01*
X139338214Y-142564757D01*
X139287627Y-142633752D01*
X139245489Y-142694633D01*
X139215892Y-142741643D01*
X139202924Y-142769027D01*
X139202666Y-142771160D01*
X139196091Y-142788681D01*
X139177929Y-142831654D01*
X139150527Y-142894662D01*
X139116231Y-142972287D01*
X139092600Y-143025236D01*
X139042547Y-143140843D01*
X139008102Y-143231135D01*
X138988516Y-143300454D01*
X138983040Y-143353138D01*
X138990926Y-143393530D01*
X139011426Y-143425970D01*
X139021691Y-143436483D01*
X139060849Y-143473271D01*
X139060850Y-143363059D01*
X139068286Y-143274259D01*
X139092943Y-143210560D01*
X139138339Y-143166089D01*
X139194948Y-143139343D01*
X139256540Y-143124884D01*
X139313467Y-143130969D01*
X139322644Y-143133509D01*
X139377192Y-143161791D01*
X139409947Y-143209730D01*
X139421552Y-143279650D01*
X139412652Y-143373875D01*
X139402668Y-143422498D01*
X139392122Y-143475630D01*
X139392019Y-143505759D01*
X139402742Y-143522220D01*
X139406901Y-143525131D01*
X139453089Y-143540281D01*
X139490364Y-143525897D01*
X139506848Y-143500359D01*
X139543402Y-143438756D01*
X139598674Y-143402410D01*
X139676671Y-143388879D01*
X139690152Y-143388666D01*
X139747636Y-143391263D01*
X139786588Y-143402959D01*
X139822188Y-143429610D01*
X139839359Y-143446239D01*
X139879989Y-143496049D01*
X139895972Y-143543555D01*
X139896870Y-143560539D01*
X139881112Y-143636529D01*
X139837993Y-143701158D01*
X139773473Y-143749106D01*
X139693515Y-143775051D01*
X139653074Y-143778133D01*
X139613157Y-143781246D01*
X139592627Y-143788926D01*
X139591902Y-143790833D01*
X139587723Y-143815803D01*
X139581460Y-143841633D01*
X139577961Y-143863265D01*
X139587243Y-143874638D01*
X139616580Y-143879033D01*
X139665968Y-143879733D01*
X139732831Y-143885518D01*
X139776610Y-143906848D01*
X139803738Y-143949684D01*
X139820644Y-144019990D01*
X139821231Y-144023666D01*
X139823889Y-144078285D01*
X139808034Y-144124560D01*
X139791883Y-144150666D01*
X139763701Y-144186807D01*
X139733882Y-144205398D01*
X139688846Y-144213348D01*
X139665482Y-144214983D01*
X139614209Y-144219471D01*
X139587013Y-144229073D01*
X139574115Y-144249672D01*
X139568440Y-144273365D01*
X139548357Y-144341578D01*
X139517029Y-144382161D01*
X139467429Y-144401089D01*
X139413942Y-144404666D01*
X139348946Y-144400516D01*
X139306853Y-144386301D01*
X139288432Y-144371899D01*
X139262712Y-144333186D01*
X139238830Y-144277000D01*
X139222898Y-144219463D01*
X139219694Y-144190578D01*
X139205973Y-144168497D01*
X139192815Y-144160945D01*
X139161548Y-144151455D01*
X139155824Y-144158673D01*
X139161012Y-144168698D01*
X139167189Y-144205426D01*
X139157023Y-144256548D01*
X139134275Y-144309203D01*
X139109961Y-144343337D01*
X139076401Y-144371869D01*
X139036487Y-144384941D01*
X138985217Y-144387733D01*
X138907941Y-144377540D01*
X138855919Y-144347754D01*
X138830978Y-144299567D01*
X138829273Y-144286133D01*
X138827624Y-144206583D01*
X138837299Y-144148872D01*
X138860964Y-144102097D01*
X138880206Y-144077881D01*
X138930280Y-144020850D01*
X138893851Y-143946058D01*
X138872832Y-143904307D01*
X138853680Y-143875845D01*
X138828693Y-143854835D01*
X138790168Y-143835438D01*
X138730402Y-143811816D01*
X138703133Y-143801505D01*
X138577982Y-143750638D01*
X138482308Y-143703099D01*
X138412208Y-143656495D01*
X138363777Y-143608435D01*
X138346246Y-143582731D01*
X138304570Y-143511617D01*
X138364564Y-143335842D01*
X138387079Y-143263478D01*
X138410408Y-143177626D01*
X138433109Y-143085034D01*
X138453740Y-142992454D01*
X138470860Y-142906635D01*
X138483027Y-142834329D01*
X138488800Y-142782285D01*
X138487687Y-142759261D01*
X138472549Y-142759381D01*
X138438855Y-142777108D01*
X138398334Y-142805343D01*
X138267261Y-142884301D01*
X138118812Y-142935086D01*
X137954902Y-142957363D01*
X137777444Y-142950795D01*
X137668284Y-142933481D01*
X137598540Y-142918676D01*
X137540839Y-142904972D01*
X137503704Y-142894460D01*
X137495583Y-142891100D01*
X137471684Y-142882710D01*
X137423144Y-142869796D01*
X137358516Y-142854556D01*
X137324614Y-142847130D01*
X137250166Y-142831977D01*
X137198709Y-142824470D01*
X137160310Y-142824320D01*
X137125036Y-142831237D01*
X137095918Y-142840458D01*
X137048726Y-142863874D01*
X136997226Y-142900377D01*
X136949708Y-142942561D01*
X136914463Y-142983022D01*
X136899779Y-143014355D01*
X136899733Y-143015697D01*
X136914112Y-143031593D01*
X136946300Y-143045282D01*
X136978384Y-143057775D01*
X137033285Y-143082650D01*
X137103842Y-143116534D01*
X137182894Y-143156054D01*
X137199201Y-143164393D01*
X137341475Y-143242989D01*
X137453031Y-143318169D01*
X137536378Y-143393078D01*
X137594024Y-143470863D01*
X137628476Y-143554669D01*
X137642242Y-143647642D01*
X137641005Y-143718597D01*
X137635010Y-143767501D01*
X137622535Y-143815306D01*
X137600938Y-143867190D01*
X137567574Y-143928332D01*
X137519802Y-144003911D01*
X137454978Y-144099105D01*
X137424833Y-144142200D01*
X137386462Y-144200434D01*
X137357227Y-144251746D01*
X137341924Y-144287456D01*
X137340752Y-144294272D01*
X137346630Y-144328075D01*
X137362554Y-144379330D01*
X137377202Y-144417570D01*
X137401512Y-144469730D01*
X137421013Y-144494115D01*
X137439729Y-144495646D01*
X137440702Y-144495218D01*
X137497084Y-144480324D01*
X137568525Y-144475736D01*
X137639348Y-144481313D01*
X137693875Y-144496917D01*
X137694965Y-144497471D01*
X137746762Y-144540730D01*
X137780020Y-144601708D01*
X137794335Y-144671732D01*
X137789303Y-144742132D01*
X137764523Y-144804237D01*
X137719590Y-144849375D01*
X137711538Y-144853914D01*
X137641220Y-144874274D01*
X137550045Y-144875954D01*
X137445418Y-144858931D01*
X137428919Y-144854736D01*
X137377209Y-144841897D01*
X137346910Y-144839795D01*
X137326774Y-144850209D01*
X137306152Y-144874154D01*
X137282530Y-144909022D01*
X137272279Y-144933739D01*
X137272266Y-144934223D01*
X137282968Y-144954969D01*
X137310676Y-144991197D01*
X137340000Y-145024694D01*
X137380315Y-145072724D01*
X137400764Y-145112133D01*
X137407439Y-145156050D01*
X137407670Y-145170521D01*
X137393365Y-145255384D01*
X137354093Y-145325001D01*
X137295075Y-145374442D01*
X137221531Y-145398776D01*
X137166246Y-145398514D01*
X137093676Y-145375700D01*
X137039839Y-145328262D01*
X137003773Y-145254613D01*
X136984518Y-145153164D01*
X136980910Y-145092125D01*
X136976983Y-145035595D01*
X136967294Y-145004887D01*
X136949292Y-144992109D01*
X136948516Y-144991899D01*
X136923565Y-144995897D01*
X136908927Y-145027987D01*
X136908256Y-145030944D01*
X136883098Y-145091854D01*
X136838399Y-145155771D01*
X136784149Y-145209130D01*
X136768845Y-145220176D01*
X136719383Y-145241260D01*
X136661830Y-145251124D01*
X136656760Y-145251221D01*
X136591731Y-145236045D01*
X136537708Y-145195719D01*
X136499569Y-145138403D01*
X136482191Y-145072253D01*
X136490454Y-145005428D01*
X136498567Y-144986650D01*
X136529155Y-144939157D01*
X136571208Y-144899008D01*
X136633636Y-144858271D01*
X136658433Y-144844330D01*
X136700357Y-144818716D01*
X136726299Y-144797852D01*
X136730399Y-144791015D01*
X136727553Y-144780152D01*
X136714953Y-144780961D01*
X136686506Y-144795792D01*
X136636121Y-144826997D01*
X136634539Y-144828000D01*
X136567014Y-144864323D01*
X136509974Y-144876923D01*
X136451354Y-144867343D01*
X136419506Y-144855482D01*
X136365085Y-144815591D01*
X136333852Y-144752028D01*
X136326634Y-144666555D01*
X136327145Y-144658459D01*
X136338206Y-144601867D01*
X136364901Y-144561384D01*
X136411927Y-144534031D01*
X136483984Y-144516825D01*
X136563833Y-144508288D01*
X136633333Y-144502294D01*
X136675566Y-144495636D01*
X136697103Y-144486276D01*
X136704516Y-144472181D01*
X136704999Y-144464567D01*
X136701358Y-144445976D01*
X136686268Y-144431787D01*
X136653483Y-144419145D01*
X136596757Y-144405194D01*
X136556308Y-144396595D01*
X136511007Y-144372044D01*
X136472107Y-144325016D01*
X136447388Y-144266872D01*
X136442596Y-144230556D01*
X136455943Y-144147785D01*
X136493635Y-144086396D01*
X136551779Y-144049410D01*
X136626479Y-144039850D01*
X136677261Y-144048437D01*
X136719131Y-144064101D01*
X136756903Y-144090254D01*
X136797127Y-144132881D01*
X136846355Y-144197962D01*
X136856238Y-144211900D01*
X136888944Y-144258315D01*
X136928205Y-144141926D01*
X136954778Y-144045143D01*
X136966090Y-143960877D01*
X136961751Y-143895209D01*
X136946299Y-143859580D01*
X136927782Y-143846935D01*
X136891774Y-143837283D01*
X136833191Y-143829771D01*
X136746945Y-143823546D01*
X136723805Y-143822268D01*
X136503982Y-143795047D01*
X136298078Y-143737696D01*
X136122912Y-143659018D01*
X136031890Y-143609759D01*
X135741912Y-143717540D01*
X135579765Y-143775974D01*
X135420914Y-143829128D01*
X135257043Y-143879517D01*
X135079836Y-143929652D01*
X134880978Y-143982046D01*
X134791533Y-144004695D01*
X134492166Y-144086930D01*
X134225330Y-144175507D01*
X133990203Y-144270883D01*
X133785963Y-144373514D01*
X133611789Y-144483857D01*
X133466861Y-144602367D01*
X133350356Y-144729503D01*
X133269641Y-144850753D01*
X133219165Y-144954781D01*
X133183383Y-145063497D01*
X133159829Y-145186450D01*
X133146333Y-145328355D01*
X133147741Y-145504382D01*
X133171981Y-145681517D01*
X133216918Y-145853058D01*
X133280416Y-146012301D01*
X133360339Y-146152546D01*
X133441066Y-146253357D01*
X133545091Y-146348838D01*
X133657478Y-146423024D01*
X133787646Y-146481436D01*
X133883875Y-146512869D01*
X133957416Y-146532494D01*
X134023893Y-146545140D01*
X134091138Y-146551038D01*
X134166985Y-146550415D01*
X134259267Y-146543500D01*
X134375816Y-146530523D01*
X134397460Y-146527872D01*
X134449242Y-146524019D01*
X134483519Y-146531986D01*
X134515943Y-146556698D01*
X134528693Y-146569155D01*
X134570804Y-146630111D01*
X134581465Y-146692999D01*
X134562437Y-146753119D01*
X134515482Y-146805767D01*
X134442360Y-146846242D01*
X134422303Y-146853247D01*
X134370195Y-146864132D01*
X134292415Y-146873424D01*
X134197129Y-146880822D01*
X134092507Y-146886025D01*
X133986717Y-146888729D01*
X133887927Y-146888635D01*
X133804307Y-146885438D01*
X133744024Y-146878839D01*
X133741666Y-146878395D01*
X133660696Y-146856817D01*
X133564971Y-146822629D01*
X133468297Y-146781422D01*
X133384478Y-146738790D01*
X133358537Y-146723167D01*
X133299595Y-146678520D01*
X133227456Y-146613560D01*
X133148885Y-146535327D01*
X133070647Y-146450866D01*
X132999509Y-146367220D01*
X132942235Y-146291430D01*
X132938307Y-146285700D01*
X132835227Y-146108687D01*
X132751974Y-145913092D01*
X132713886Y-145792068D01*
X132699403Y-145735213D01*
X132689004Y-145682234D01*
X132682064Y-145625787D01*
X132677960Y-145558530D01*
X132676065Y-145473119D01*
X132675755Y-145362211D01*
X132675802Y-145344466D01*
X132676494Y-145232647D01*
X132678291Y-145147422D01*
X132681945Y-145081519D01*
X132688211Y-145027668D01*
X132697842Y-144978597D01*
X132711594Y-144927035D01*
X132723033Y-144888953D01*
X132813451Y-144646139D01*
X132930593Y-144421686D01*
X133076620Y-144211959D01*
X133228463Y-144039039D01*
X133371346Y-143900044D01*
X133504945Y-143788839D01*
X133633544Y-143702186D01*
X133758600Y-143638071D01*
X133826412Y-143607732D01*
X133913854Y-143567478D01*
X134010156Y-143522318D01*
X134104548Y-143477266D01*
X134114200Y-143472606D01*
X134203508Y-143429641D01*
X134291720Y-143387575D01*
X134369622Y-143350780D01*
X134427996Y-143323627D01*
X134435933Y-143320003D01*
X134610149Y-143240477D01*
X134756167Y-143172954D01*
X134876856Y-143115967D01*
X134975091Y-143068045D01*
X135053743Y-143027721D01*
X135115684Y-142993526D01*
X135163786Y-142963990D01*
X135200922Y-142937645D01*
X135227818Y-142915010D01*
X135311162Y-142838333D01*
X135285558Y-142770600D01*
X135247595Y-142662803D01*
X135210188Y-142543479D01*
X135175934Y-142422114D01*
X135147434Y-142308192D01*
X135127285Y-142211199D01*
X135120794Y-142169224D01*
X135108269Y-142071650D01*
X135098750Y-142002770D01*
X135091236Y-141957651D01*
X135084725Y-141931358D01*
X135078217Y-141918957D01*
X135070707Y-141915515D01*
X135069274Y-141915466D01*
X135046742Y-141924814D01*
X135005423Y-141949568D01*
X134952219Y-141984793D01*
X134894034Y-142025554D01*
X134837772Y-142066916D01*
X134790335Y-142103944D01*
X134758628Y-142131704D01*
X134749199Y-142144274D01*
X134761697Y-142165685D01*
X134792633Y-142194933D01*
X134801556Y-142201806D01*
X134858957Y-142264620D01*
X134893008Y-142348204D01*
X134901600Y-142424914D01*
X134897170Y-142472813D01*
X134879418Y-142511541D01*
X134841644Y-142555112D01*
X134837263Y-142559520D01*
X134761805Y-142615626D01*
X134677403Y-142640130D01*
X134580216Y-142634107D01*
X134574981Y-142633029D01*
X134508961Y-142607085D01*
X134463285Y-142559810D01*
X134436186Y-142488238D01*
X134425895Y-142389407D01*
X134425778Y-142382862D01*
X134423289Y-142315897D01*
X134418409Y-142257158D01*
X134412384Y-142220266D01*
X134390549Y-142183234D01*
X134356792Y-142172917D01*
X134316226Y-142186760D01*
X134273964Y-142222209D01*
X134235119Y-142276708D01*
X134215010Y-142318901D01*
X134175990Y-142379611D01*
X134116436Y-142432091D01*
X134048562Y-142466916D01*
X134012600Y-142475078D01*
X133936193Y-142468661D01*
X133865238Y-142437394D01*
X133826001Y-142403051D01*
X133793611Y-142340732D01*
X133782578Y-142263920D01*
X133793228Y-142184669D01*
X133818505Y-142126100D01*
X133859398Y-142081158D01*
X133918499Y-142039973D01*
X133982409Y-142010382D01*
X134033919Y-142000133D01*
X134072956Y-141985071D01*
X134105136Y-141947284D01*
X134121891Y-141897872D01*
X134122666Y-141885157D01*
X134116391Y-141856222D01*
X134093996Y-141853777D01*
X134093033Y-141854051D01*
X133993201Y-141879851D01*
X133916483Y-141891111D01*
X133855375Y-141887769D01*
X133802376Y-141869765D01*
X133770682Y-141851464D01*
X133719615Y-141799706D01*
X133693193Y-141733467D01*
X133691944Y-141662041D01*
X133716394Y-141594722D01*
X133753655Y-141551035D01*
X133805810Y-141519649D01*
X133869580Y-141509184D01*
X133879273Y-141509066D01*
X133936234Y-141514941D01*
X133990963Y-141530031D01*
X134033602Y-141550532D01*
X134054295Y-141572641D01*
X134054933Y-141576844D01*
X134067691Y-141596831D01*
X134096131Y-141619946D01*
X134134698Y-141637251D01*
X134169247Y-141629809D01*
X134172331Y-141628207D01*
X134201427Y-141606057D01*
X134200679Y-141584454D01*
X134168803Y-141560684D01*
X134132224Y-141543401D01*
X134058254Y-141498141D01*
X134014355Y-141438025D01*
X133999522Y-141361665D01*
X133999515Y-141359739D01*
X134013072Y-141276572D01*
X134050588Y-141212779D01*
X134107326Y-141171995D01*
X134178550Y-141157855D01*
X134247210Y-141169589D01*
X134310885Y-141205370D01*
X134359319Y-141267193D01*
X134394542Y-141356666D01*
X134414104Y-141416874D01*
X134431745Y-141448828D01*
X134450885Y-141457719D01*
X134459912Y-141455918D01*
X134463995Y-141438344D01*
X134449781Y-141397888D01*
X134435994Y-141370122D01*
X134400854Y-141276196D01*
X134393600Y-141203348D01*
X134396675Y-141146645D01*
X134410194Y-141107395D01*
X134440591Y-141069421D01*
X134451173Y-141058640D01*
X134496440Y-141020333D01*
X134539564Y-141003686D01*
X134575889Y-141001066D01*
X134650621Y-141016160D01*
X134709884Y-141057782D01*
X134749252Y-141120448D01*
X134764301Y-141198670D01*
X134762587Y-141232511D01*
X134759540Y-141270162D01*
X134763732Y-141278019D01*
X134773390Y-141264723D01*
X134790262Y-141239505D01*
X134822665Y-141193705D01*
X134865894Y-141133897D01*
X134913812Y-141068591D01*
X134976869Y-140986727D01*
X135028484Y-140929758D01*
X135074521Y-140893468D01*
X135120844Y-140873642D01*
X135173314Y-140866062D01*
X135196226Y-140865516D01*
X135291624Y-140881337D01*
X135392521Y-140927276D01*
X135496157Y-141000607D01*
X135599772Y-141098601D01*
X135700607Y-141218534D01*
X135795902Y-141357678D01*
X135882898Y-141513306D01*
X135911280Y-141572039D01*
X135944948Y-141648158D01*
X135974084Y-141720579D01*
X135994766Y-141779206D01*
X136001794Y-141805010D01*
X136017561Y-141875544D01*
X136036634Y-141951754D01*
X136056799Y-142025829D01*
X136075847Y-142089961D01*
X136091565Y-142136338D01*
X136101409Y-142156849D01*
X136119034Y-142158064D01*
X136147777Y-142136107D01*
X136188605Y-142089742D01*
X136242486Y-142017735D01*
X136310387Y-141918847D01*
X136393275Y-141791844D01*
X136420874Y-141748601D01*
X136526515Y-141587008D01*
X136621500Y-141452581D01*
X136709229Y-141341674D01*
X136793106Y-141250642D01*
X136876530Y-141175838D01*
X136962904Y-141113619D01*
X137055629Y-141060337D01*
X137069763Y-141053157D01*
X137159239Y-141012197D01*
X137253976Y-140975106D01*
X137339587Y-140947337D01*
X137368239Y-140940018D01*
X137473042Y-140923044D01*
X137603252Y-140912786D01*
X137751078Y-140909282D01*
X137908726Y-140912570D01*
X138068403Y-140922685D01*
X138195133Y-140936069D01*
X138285910Y-140947232D01*
X138349260Y-140953649D01*
X138391282Y-140955352D01*
X138418078Y-140952374D01*
X138435748Y-140944746D01*
X138445139Y-140937390D01*
X138464480Y-140907786D01*
X138460928Y-140869941D01*
X138433145Y-140819034D01*
X138400159Y-140775027D01*
X138376398Y-140744101D01*
X138361344Y-140717229D01*
X138353267Y-140685868D01*
X138350437Y-140641475D01*
X138351123Y-140575508D01*
X138352085Y-140537715D01*
X138356638Y-140366066D01*
X138229000Y-140221832D01*
X138154485Y-140272782D01*
X138072427Y-140312563D01*
X137990415Y-140324049D01*
X137913832Y-140310148D01*
X137848063Y-140273768D01*
X137798492Y-140217816D01*
X137770503Y-140145199D01*
X137768668Y-140064441D01*
X137784459Y-140009715D01*
X137811409Y-139962841D01*
X137815177Y-139958555D01*
X137871567Y-139918159D01*
X137950331Y-139887718D01*
X138040639Y-139870539D01*
X138110632Y-139868399D01*
X138179246Y-139866682D01*
X138222872Y-139850813D01*
X138248972Y-139816334D01*
X138260826Y-139778670D01*
X138263415Y-139752974D01*
X138254179Y-139729682D01*
X138228062Y-139701917D01*
X138180006Y-139662800D01*
X138169907Y-139655001D01*
X138118456Y-139613245D01*
X138077161Y-139575760D01*
X138054152Y-139549983D01*
X138053059Y-139548130D01*
X138040462Y-139506574D01*
X138032581Y-139445483D01*
X138031055Y-139379049D01*
X138031805Y-139364065D01*
X138049257Y-139315115D01*
X138089255Y-139265074D01*
X138142307Y-139223839D01*
X138184544Y-139204768D01*
X138228011Y-139195327D01*
X138266460Y-139198988D01*
G37*
X138266460Y-139198988D02*
X138315375Y-139217769D01*
X138327492Y-139223384D01*
X138398472Y-139265927D01*
X138446502Y-139319496D01*
X138476346Y-139391516D01*
X138491705Y-139479242D01*
X138507345Y-139568545D01*
X138531309Y-139625508D01*
X138563965Y-139650706D01*
X138598561Y-139647681D01*
X138632456Y-139620108D01*
X138649071Y-139567499D01*
X138649054Y-139487579D01*
X138647769Y-139474160D01*
X138646864Y-139411110D01*
X138662749Y-139359736D01*
X138677045Y-139334246D01*
X138715571Y-139282446D01*
X138758141Y-139253447D01*
X138816004Y-139241451D01*
X138859935Y-139240000D01*
X138935565Y-139251599D01*
X138990068Y-139288474D01*
X139027909Y-139353743D01*
X139029711Y-139358533D01*
X139042535Y-139436836D01*
X139022362Y-139513697D01*
X138968822Y-139590246D01*
X138946455Y-139613074D01*
X138892926Y-139668804D01*
X138867514Y-139706575D01*
X138869958Y-139726916D01*
X138888316Y-139731066D01*
X138910805Y-139717445D01*
X138938674Y-139683177D01*
X138949263Y-139665891D01*
X139005758Y-139599284D01*
X139060866Y-139564291D01*
X139150631Y-139533400D01*
X139228322Y-139533301D01*
X139292792Y-139563777D01*
X139338062Y-139616344D01*
X139366990Y-139691184D01*
X139365069Y-139764271D01*
X139335235Y-139831510D01*
X139280422Y-139888805D01*
X139203568Y-139932061D01*
X139107608Y-139957181D01*
X139092372Y-139959066D01*
X139030531Y-139966836D01*
X138996875Y-139976833D01*
X138985841Y-139994075D01*
X138991863Y-140023581D01*
X138999047Y-140043230D01*
X139010194Y-140066188D01*
X139027404Y-140079212D01*
X139059244Y-140085096D01*
X139114280Y-140086633D01*
X139132230Y-140086666D01*
X139221368Y-140093466D01*
X139286379Y-140116408D01*
X139334679Y-140159309D01*
X139363871Y-140205854D01*
X139386389Y-140280431D01*
X139375977Y-140350207D01*
X139333526Y-140412123D01*
X139294658Y-140443175D01*
X139220900Y-140472793D01*
X139140502Y-140472803D01*
X139060594Y-140444539D01*
X138988303Y-140389333D01*
X138984305Y-140385130D01*
X138949404Y-140357061D01*
X138925699Y-140356262D01*
X138913370Y-140377975D01*
X138912598Y-140417444D01*
X138923563Y-140469915D01*
X138946445Y-140530630D01*
X138976640Y-140587196D01*
X139016460Y-140652356D01*
X139064071Y-140730813D01*
X139109900Y-140806787D01*
X139114712Y-140814800D01*
X139180555Y-140923121D01*
X139232918Y-141005759D01*
X139274628Y-141066710D01*
X139308515Y-141109970D01*
X139337406Y-141139536D01*
X139353712Y-141152502D01*
X139395977Y-141179018D01*
X139427413Y-141183742D01*
X139461452Y-141165856D01*
X139488271Y-141144304D01*
X139530947Y-141092120D01*
X139574431Y-141007028D01*
X139592589Y-140962271D01*
X139642417Y-140853462D01*
X139703114Y-140765184D01*
X139779874Y-140692981D01*
X139877891Y-140632396D01*
X140002360Y-140578975D01*
X140064657Y-140557312D01*
X140254117Y-140510139D01*
X140467793Y-140485354D01*
X140704438Y-140483014D01*
X140962803Y-140503179D01*
X141031466Y-140511855D01*
X141266020Y-140559576D01*
X141501181Y-140638320D01*
X141730828Y-140745920D01*
X141796088Y-140782544D01*
X141859904Y-140822756D01*
X141902569Y-140859245D01*
X141934000Y-140901757D01*
X141952721Y-140936463D01*
X141975092Y-140986670D01*
X141988421Y-141034345D01*
X141994885Y-141091338D01*
X141996661Y-141169495D01*
X141996666Y-141175587D01*
X141995513Y-141252091D01*
X141990302Y-141306955D01*
X141978404Y-141352372D01*
X141957191Y-141400540D01*
X141941726Y-141430496D01*
X141895867Y-141501175D01*
X141827030Y-141585950D01*
X141740149Y-141679730D01*
X141640152Y-141777424D01*
X141531972Y-141873942D01*
X141437372Y-141951174D01*
X141227221Y-142104078D01*
X141022151Y-142231374D01*
X140824066Y-142332273D01*
X140634865Y-142405983D01*
X140456450Y-142451714D01*
X140290723Y-142468676D01*
X140201733Y-142465076D01*
X140105504Y-142449269D01*
X140023938Y-142419656D01*
X139947510Y-142371249D01*
X139866694Y-142299062D01*
X139847551Y-142279671D01*
X139797724Y-142230802D01*
X139754697Y-142193048D01*
X139725055Y-142172000D01*
X139717734Y-142169466D01*
X139684605Y-142183355D01*
X139633979Y-142224209D01*
X139567137Y-142290810D01*
X139485360Y-142381941D01*
X139448374Y-142425441D01*
X139393160Y-142493401D01*
X139338214Y-142564757D01*
X139287627Y-142633752D01*
X139245489Y-142694633D01*
X139215892Y-142741643D01*
X139202924Y-142769027D01*
X139202666Y-142771160D01*
X139196091Y-142788681D01*
X139177929Y-142831654D01*
X139150527Y-142894662D01*
X139116231Y-142972287D01*
X139092600Y-143025236D01*
X139042547Y-143140843D01*
X139008102Y-143231135D01*
X138988516Y-143300454D01*
X138983040Y-143353138D01*
X138990926Y-143393530D01*
X139011426Y-143425970D01*
X139021691Y-143436483D01*
X139060849Y-143473271D01*
X139060850Y-143363059D01*
X139068286Y-143274259D01*
X139092943Y-143210560D01*
X139138339Y-143166089D01*
X139194948Y-143139343D01*
X139256540Y-143124884D01*
X139313467Y-143130969D01*
X139322644Y-143133509D01*
X139377192Y-143161791D01*
X139409947Y-143209730D01*
X139421552Y-143279650D01*
X139412652Y-143373875D01*
X139402668Y-143422498D01*
X139392122Y-143475630D01*
X139392019Y-143505759D01*
X139402742Y-143522220D01*
X139406901Y-143525131D01*
X139453089Y-143540281D01*
X139490364Y-143525897D01*
X139506848Y-143500359D01*
X139543402Y-143438756D01*
X139598674Y-143402410D01*
X139676671Y-143388879D01*
X139690152Y-143388666D01*
X139747636Y-143391263D01*
X139786588Y-143402959D01*
X139822188Y-143429610D01*
X139839359Y-143446239D01*
X139879989Y-143496049D01*
X139895972Y-143543555D01*
X139896870Y-143560539D01*
X139881112Y-143636529D01*
X139837993Y-143701158D01*
X139773473Y-143749106D01*
X139693515Y-143775051D01*
X139653074Y-143778133D01*
X139613157Y-143781246D01*
X139592627Y-143788926D01*
X139591902Y-143790833D01*
X139587723Y-143815803D01*
X139581460Y-143841633D01*
X139577961Y-143863265D01*
X139587243Y-143874638D01*
X139616580Y-143879033D01*
X139665968Y-143879733D01*
X139732831Y-143885518D01*
X139776610Y-143906848D01*
X139803738Y-143949684D01*
X139820644Y-144019990D01*
X139821231Y-144023666D01*
X139823889Y-144078285D01*
X139808034Y-144124560D01*
X139791883Y-144150666D01*
X139763701Y-144186807D01*
X139733882Y-144205398D01*
X139688846Y-144213348D01*
X139665482Y-144214983D01*
X139614209Y-144219471D01*
X139587013Y-144229073D01*
X139574115Y-144249672D01*
X139568440Y-144273365D01*
X139548357Y-144341578D01*
X139517029Y-144382161D01*
X139467429Y-144401089D01*
X139413942Y-144404666D01*
X139348946Y-144400516D01*
X139306853Y-144386301D01*
X139288432Y-144371899D01*
X139262712Y-144333186D01*
X139238830Y-144277000D01*
X139222898Y-144219463D01*
X139219694Y-144190578D01*
X139205973Y-144168497D01*
X139192815Y-144160945D01*
X139161548Y-144151455D01*
X139155824Y-144158673D01*
X139161012Y-144168698D01*
X139167189Y-144205426D01*
X139157023Y-144256548D01*
X139134275Y-144309203D01*
X139109961Y-144343337D01*
X139076401Y-144371869D01*
X139036487Y-144384941D01*
X138985217Y-144387733D01*
X138907941Y-144377540D01*
X138855919Y-144347754D01*
X138830978Y-144299567D01*
X138829273Y-144286133D01*
X138827624Y-144206583D01*
X138837299Y-144148872D01*
X138860964Y-144102097D01*
X138880206Y-144077881D01*
X138930280Y-144020850D01*
X138893851Y-143946058D01*
X138872832Y-143904307D01*
X138853680Y-143875845D01*
X138828693Y-143854835D01*
X138790168Y-143835438D01*
X138730402Y-143811816D01*
X138703133Y-143801505D01*
X138577982Y-143750638D01*
X138482308Y-143703099D01*
X138412208Y-143656495D01*
X138363777Y-143608435D01*
X138346246Y-143582731D01*
X138304570Y-143511617D01*
X138364564Y-143335842D01*
X138387079Y-143263478D01*
X138410408Y-143177626D01*
X138433109Y-143085034D01*
X138453740Y-142992454D01*
X138470860Y-142906635D01*
X138483027Y-142834329D01*
X138488800Y-142782285D01*
X138487687Y-142759261D01*
X138472549Y-142759381D01*
X138438855Y-142777108D01*
X138398334Y-142805343D01*
X138267261Y-142884301D01*
X138118812Y-142935086D01*
X137954902Y-142957363D01*
X137777444Y-142950795D01*
X137668284Y-142933481D01*
X137598540Y-142918676D01*
X137540839Y-142904972D01*
X137503704Y-142894460D01*
X137495583Y-142891100D01*
X137471684Y-142882710D01*
X137423144Y-142869796D01*
X137358516Y-142854556D01*
X137324614Y-142847130D01*
X137250166Y-142831977D01*
X137198709Y-142824470D01*
X137160310Y-142824320D01*
X137125036Y-142831237D01*
X137095918Y-142840458D01*
X137048726Y-142863874D01*
X136997226Y-142900377D01*
X136949708Y-142942561D01*
X136914463Y-142983022D01*
X136899779Y-143014355D01*
X136899733Y-143015697D01*
X136914112Y-143031593D01*
X136946300Y-143045282D01*
X136978384Y-143057775D01*
X137033285Y-143082650D01*
X137103842Y-143116534D01*
X137182894Y-143156054D01*
X137199201Y-143164393D01*
X137341475Y-143242989D01*
X137453031Y-143318169D01*
X137536378Y-143393078D01*
X137594024Y-143470863D01*
X137628476Y-143554669D01*
X137642242Y-143647642D01*
X137641005Y-143718597D01*
X137635010Y-143767501D01*
X137622535Y-143815306D01*
X137600938Y-143867190D01*
X137567574Y-143928332D01*
X137519802Y-144003911D01*
X137454978Y-144099105D01*
X137424833Y-144142200D01*
X137386462Y-144200434D01*
X137357227Y-144251746D01*
X137341924Y-144287456D01*
X137340752Y-144294272D01*
X137346630Y-144328075D01*
X137362554Y-144379330D01*
X137377202Y-144417570D01*
X137401512Y-144469730D01*
X137421013Y-144494115D01*
X137439729Y-144495646D01*
X137440702Y-144495218D01*
X137497084Y-144480324D01*
X137568525Y-144475736D01*
X137639348Y-144481313D01*
X137693875Y-144496917D01*
X137694965Y-144497471D01*
X137746762Y-144540730D01*
X137780020Y-144601708D01*
X137794335Y-144671732D01*
X137789303Y-144742132D01*
X137764523Y-144804237D01*
X137719590Y-144849375D01*
X137711538Y-144853914D01*
X137641220Y-144874274D01*
X137550045Y-144875954D01*
X137445418Y-144858931D01*
X137428919Y-144854736D01*
X137377209Y-144841897D01*
X137346910Y-144839795D01*
X137326774Y-144850209D01*
X137306152Y-144874154D01*
X137282530Y-144909022D01*
X137272279Y-144933739D01*
X137272266Y-144934223D01*
X137282968Y-144954969D01*
X137310676Y-144991197D01*
X137340000Y-145024694D01*
X137380315Y-145072724D01*
X137400764Y-145112133D01*
X137407439Y-145156050D01*
X137407670Y-145170521D01*
X137393365Y-145255384D01*
X137354093Y-145325001D01*
X137295075Y-145374442D01*
X137221531Y-145398776D01*
X137166246Y-145398514D01*
X137093676Y-145375700D01*
X137039839Y-145328262D01*
X137003773Y-145254613D01*
X136984518Y-145153164D01*
X136980910Y-145092125D01*
X136976983Y-145035595D01*
X136967294Y-145004887D01*
X136949292Y-144992109D01*
X136948516Y-144991899D01*
X136923565Y-144995897D01*
X136908927Y-145027987D01*
X136908256Y-145030944D01*
X136883098Y-145091854D01*
X136838399Y-145155771D01*
X136784149Y-145209130D01*
X136768845Y-145220176D01*
X136719383Y-145241260D01*
X136661830Y-145251124D01*
X136656760Y-145251221D01*
X136591731Y-145236045D01*
X136537708Y-145195719D01*
X136499569Y-145138403D01*
X136482191Y-145072253D01*
X136490454Y-145005428D01*
X136498567Y-144986650D01*
X136529155Y-144939157D01*
X136571208Y-144899008D01*
X136633636Y-144858271D01*
X136658433Y-144844330D01*
X136700357Y-144818716D01*
X136726299Y-144797852D01*
X136730399Y-144791015D01*
X136727553Y-144780152D01*
X136714953Y-144780961D01*
X136686506Y-144795792D01*
X136636121Y-144826997D01*
X136634539Y-144828000D01*
X136567014Y-144864323D01*
X136509974Y-144876923D01*
X136451354Y-144867343D01*
X136419506Y-144855482D01*
X136365085Y-144815591D01*
X136333852Y-144752028D01*
X136326634Y-144666555D01*
X136327145Y-144658459D01*
X136338206Y-144601867D01*
X136364901Y-144561384D01*
X136411927Y-144534031D01*
X136483984Y-144516825D01*
X136563833Y-144508288D01*
X136633333Y-144502294D01*
X136675566Y-144495636D01*
X136697103Y-144486276D01*
X136704516Y-144472181D01*
X136704999Y-144464567D01*
X136701358Y-144445976D01*
X136686268Y-144431787D01*
X136653483Y-144419145D01*
X136596757Y-144405194D01*
X136556308Y-144396595D01*
X136511007Y-144372044D01*
X136472107Y-144325016D01*
X136447388Y-144266872D01*
X136442596Y-144230556D01*
X136455943Y-144147785D01*
X136493635Y-144086396D01*
X136551779Y-144049410D01*
X136626479Y-144039850D01*
X136677261Y-144048437D01*
X136719131Y-144064101D01*
X136756903Y-144090254D01*
X136797127Y-144132881D01*
X136846355Y-144197962D01*
X136856238Y-144211900D01*
X136888944Y-144258315D01*
X136928205Y-144141926D01*
X136954778Y-144045143D01*
X136966090Y-143960877D01*
X136961751Y-143895209D01*
X136946299Y-143859580D01*
X136927782Y-143846935D01*
X136891774Y-143837283D01*
X136833191Y-143829771D01*
X136746945Y-143823546D01*
X136723805Y-143822268D01*
X136503982Y-143795047D01*
X136298078Y-143737696D01*
X136122912Y-143659018D01*
X136031890Y-143609759D01*
X135741912Y-143717540D01*
X135579765Y-143775974D01*
X135420914Y-143829128D01*
X135257043Y-143879517D01*
X135079836Y-143929652D01*
X134880978Y-143982046D01*
X134791533Y-144004695D01*
X134492166Y-144086930D01*
X134225330Y-144175507D01*
X133990203Y-144270883D01*
X133785963Y-144373514D01*
X133611789Y-144483857D01*
X133466861Y-144602367D01*
X133350356Y-144729503D01*
X133269641Y-144850753D01*
X133219165Y-144954781D01*
X133183383Y-145063497D01*
X133159829Y-145186450D01*
X133146333Y-145328355D01*
X133147741Y-145504382D01*
X133171981Y-145681517D01*
X133216918Y-145853058D01*
X133280416Y-146012301D01*
X133360339Y-146152546D01*
X133441066Y-146253357D01*
X133545091Y-146348838D01*
X133657478Y-146423024D01*
X133787646Y-146481436D01*
X133883875Y-146512869D01*
X133957416Y-146532494D01*
X134023893Y-146545140D01*
X134091138Y-146551038D01*
X134166985Y-146550415D01*
X134259267Y-146543500D01*
X134375816Y-146530523D01*
X134397460Y-146527872D01*
X134449242Y-146524019D01*
X134483519Y-146531986D01*
X134515943Y-146556698D01*
X134528693Y-146569155D01*
X134570804Y-146630111D01*
X134581465Y-146692999D01*
X134562437Y-146753119D01*
X134515482Y-146805767D01*
X134442360Y-146846242D01*
X134422303Y-146853247D01*
X134370195Y-146864132D01*
X134292415Y-146873424D01*
X134197129Y-146880822D01*
X134092507Y-146886025D01*
X133986717Y-146888729D01*
X133887927Y-146888635D01*
X133804307Y-146885438D01*
X133744024Y-146878839D01*
X133741666Y-146878395D01*
X133660696Y-146856817D01*
X133564971Y-146822629D01*
X133468297Y-146781422D01*
X133384478Y-146738790D01*
X133358537Y-146723167D01*
X133299595Y-146678520D01*
X133227456Y-146613560D01*
X133148885Y-146535327D01*
X133070647Y-146450866D01*
X132999509Y-146367220D01*
X132942235Y-146291430D01*
X132938307Y-146285700D01*
X132835227Y-146108687D01*
X132751974Y-145913092D01*
X132713886Y-145792068D01*
X132699403Y-145735213D01*
X132689004Y-145682234D01*
X132682064Y-145625787D01*
X132677960Y-145558530D01*
X132676065Y-145473119D01*
X132675755Y-145362211D01*
X132675802Y-145344466D01*
X132676494Y-145232647D01*
X132678291Y-145147422D01*
X132681945Y-145081519D01*
X132688211Y-145027668D01*
X132697842Y-144978597D01*
X132711594Y-144927035D01*
X132723033Y-144888953D01*
X132813451Y-144646139D01*
X132930593Y-144421686D01*
X133076620Y-144211959D01*
X133228463Y-144039039D01*
X133371346Y-143900044D01*
X133504945Y-143788839D01*
X133633544Y-143702186D01*
X133758600Y-143638071D01*
X133826412Y-143607732D01*
X133913854Y-143567478D01*
X134010156Y-143522318D01*
X134104548Y-143477266D01*
X134114200Y-143472606D01*
X134203508Y-143429641D01*
X134291720Y-143387575D01*
X134369622Y-143350780D01*
X134427996Y-143323627D01*
X134435933Y-143320003D01*
X134610149Y-143240477D01*
X134756167Y-143172954D01*
X134876856Y-143115967D01*
X134975091Y-143068045D01*
X135053743Y-143027721D01*
X135115684Y-142993526D01*
X135163786Y-142963990D01*
X135200922Y-142937645D01*
X135227818Y-142915010D01*
X135311162Y-142838333D01*
X135285558Y-142770600D01*
X135247595Y-142662803D01*
X135210188Y-142543479D01*
X135175934Y-142422114D01*
X135147434Y-142308192D01*
X135127285Y-142211199D01*
X135120794Y-142169224D01*
X135108269Y-142071650D01*
X135098750Y-142002770D01*
X135091236Y-141957651D01*
X135084725Y-141931358D01*
X135078217Y-141918957D01*
X135070707Y-141915515D01*
X135069274Y-141915466D01*
X135046742Y-141924814D01*
X135005423Y-141949568D01*
X134952219Y-141984793D01*
X134894034Y-142025554D01*
X134837772Y-142066916D01*
X134790335Y-142103944D01*
X134758628Y-142131704D01*
X134749199Y-142144274D01*
X134761697Y-142165685D01*
X134792633Y-142194933D01*
X134801556Y-142201806D01*
X134858957Y-142264620D01*
X134893008Y-142348204D01*
X134901600Y-142424914D01*
X134897170Y-142472813D01*
X134879418Y-142511541D01*
X134841644Y-142555112D01*
X134837263Y-142559520D01*
X134761805Y-142615626D01*
X134677403Y-142640130D01*
X134580216Y-142634107D01*
X134574981Y-142633029D01*
X134508961Y-142607085D01*
X134463285Y-142559810D01*
X134436186Y-142488238D01*
X134425895Y-142389407D01*
X134425778Y-142382862D01*
X134423289Y-142315897D01*
X134418409Y-142257158D01*
X134412384Y-142220266D01*
X134390549Y-142183234D01*
X134356792Y-142172917D01*
X134316226Y-142186760D01*
X134273964Y-142222209D01*
X134235119Y-142276708D01*
X134215010Y-142318901D01*
X134175990Y-142379611D01*
X134116436Y-142432091D01*
X134048562Y-142466916D01*
X134012600Y-142475078D01*
X133936193Y-142468661D01*
X133865238Y-142437394D01*
X133826001Y-142403051D01*
X133793611Y-142340732D01*
X133782578Y-142263920D01*
X133793228Y-142184669D01*
X133818505Y-142126100D01*
X133859398Y-142081158D01*
X133918499Y-142039973D01*
X133982409Y-142010382D01*
X134033919Y-142000133D01*
X134072956Y-141985071D01*
X134105136Y-141947284D01*
X134121891Y-141897872D01*
X134122666Y-141885157D01*
X134116391Y-141856222D01*
X134093996Y-141853777D01*
X134093033Y-141854051D01*
X133993201Y-141879851D01*
X133916483Y-141891111D01*
X133855375Y-141887769D01*
X133802376Y-141869765D01*
X133770682Y-141851464D01*
X133719615Y-141799706D01*
X133693193Y-141733467D01*
X133691944Y-141662041D01*
X133716394Y-141594722D01*
X133753655Y-141551035D01*
X133805810Y-141519649D01*
X133869580Y-141509184D01*
X133879273Y-141509066D01*
X133936234Y-141514941D01*
X133990963Y-141530031D01*
X134033602Y-141550532D01*
X134054295Y-141572641D01*
X134054933Y-141576844D01*
X134067691Y-141596831D01*
X134096131Y-141619946D01*
X134134698Y-141637251D01*
X134169247Y-141629809D01*
X134172331Y-141628207D01*
X134201427Y-141606057D01*
X134200679Y-141584454D01*
X134168803Y-141560684D01*
X134132224Y-141543401D01*
X134058254Y-141498141D01*
X134014355Y-141438025D01*
X133999522Y-141361665D01*
X133999515Y-141359739D01*
X134013072Y-141276572D01*
X134050588Y-141212779D01*
X134107326Y-141171995D01*
X134178550Y-141157855D01*
X134247210Y-141169589D01*
X134310885Y-141205370D01*
X134359319Y-141267193D01*
X134394542Y-141356666D01*
X134414104Y-141416874D01*
X134431745Y-141448828D01*
X134450885Y-141457719D01*
X134459912Y-141455918D01*
X134463995Y-141438344D01*
X134449781Y-141397888D01*
X134435994Y-141370122D01*
X134400854Y-141276196D01*
X134393600Y-141203348D01*
X134396675Y-141146645D01*
X134410194Y-141107395D01*
X134440591Y-141069421D01*
X134451173Y-141058640D01*
X134496440Y-141020333D01*
X134539564Y-141003686D01*
X134575889Y-141001066D01*
X134650621Y-141016160D01*
X134709884Y-141057782D01*
X134749252Y-141120448D01*
X134764301Y-141198670D01*
X134762587Y-141232511D01*
X134759540Y-141270162D01*
X134763732Y-141278019D01*
X134773390Y-141264723D01*
X134790262Y-141239505D01*
X134822665Y-141193705D01*
X134865894Y-141133897D01*
X134913812Y-141068591D01*
X134976869Y-140986727D01*
X135028484Y-140929758D01*
X135074521Y-140893468D01*
X135120844Y-140873642D01*
X135173314Y-140866062D01*
X135196226Y-140865516D01*
X135291624Y-140881337D01*
X135392521Y-140927276D01*
X135496157Y-141000607D01*
X135599772Y-141098601D01*
X135700607Y-141218534D01*
X135795902Y-141357678D01*
X135882898Y-141513306D01*
X135911280Y-141572039D01*
X135944948Y-141648158D01*
X135974084Y-141720579D01*
X135994766Y-141779206D01*
X136001794Y-141805010D01*
X136017561Y-141875544D01*
X136036634Y-141951754D01*
X136056799Y-142025829D01*
X136075847Y-142089961D01*
X136091565Y-142136338D01*
X136101409Y-142156849D01*
X136119034Y-142158064D01*
X136147777Y-142136107D01*
X136188605Y-142089742D01*
X136242486Y-142017735D01*
X136310387Y-141918847D01*
X136393275Y-141791844D01*
X136420874Y-141748601D01*
X136526515Y-141587008D01*
X136621500Y-141452581D01*
X136709229Y-141341674D01*
X136793106Y-141250642D01*
X136876530Y-141175838D01*
X136962904Y-141113619D01*
X137055629Y-141060337D01*
X137069763Y-141053157D01*
X137159239Y-141012197D01*
X137253976Y-140975106D01*
X137339587Y-140947337D01*
X137368239Y-140940018D01*
X137473042Y-140923044D01*
X137603252Y-140912786D01*
X137751078Y-140909282D01*
X137908726Y-140912570D01*
X138068403Y-140922685D01*
X138195133Y-140936069D01*
X138285910Y-140947232D01*
X138349260Y-140953649D01*
X138391282Y-140955352D01*
X138418078Y-140952374D01*
X138435748Y-140944746D01*
X138445139Y-140937390D01*
X138464480Y-140907786D01*
X138460928Y-140869941D01*
X138433145Y-140819034D01*
X138400159Y-140775027D01*
X138376398Y-140744101D01*
X138361344Y-140717229D01*
X138353267Y-140685868D01*
X138350437Y-140641475D01*
X138351123Y-140575508D01*
X138352085Y-140537715D01*
X138356638Y-140366066D01*
X138229000Y-140221832D01*
X138154485Y-140272782D01*
X138072427Y-140312563D01*
X137990415Y-140324049D01*
X137913832Y-140310148D01*
X137848063Y-140273768D01*
X137798492Y-140217816D01*
X137770503Y-140145199D01*
X137768668Y-140064441D01*
X137784459Y-140009715D01*
X137811409Y-139962841D01*
X137815177Y-139958555D01*
X137871567Y-139918159D01*
X137950331Y-139887718D01*
X138040639Y-139870539D01*
X138110632Y-139868399D01*
X138179246Y-139866682D01*
X138222872Y-139850813D01*
X138248972Y-139816334D01*
X138260826Y-139778670D01*
X138263415Y-139752974D01*
X138254179Y-139729682D01*
X138228062Y-139701917D01*
X138180006Y-139662800D01*
X138169907Y-139655001D01*
X138118456Y-139613245D01*
X138077161Y-139575760D01*
X138054152Y-139549983D01*
X138053059Y-139548130D01*
X138040462Y-139506574D01*
X138032581Y-139445483D01*
X138031055Y-139379049D01*
X138031805Y-139364065D01*
X138049257Y-139315115D01*
X138089255Y-139265074D01*
X138142307Y-139223839D01*
X138184544Y-139204768D01*
X138228011Y-139195327D01*
X138266460Y-139198988D01*
D14*
X119412742Y-122692500D02*
X119887258Y-122692500D01*
X119412742Y-121647500D02*
X119887258Y-121647500D01*
D15*
X148410000Y-139600000D02*
G75*
G03*
X148410000Y-139600000I-125000J0D01*
G01*
D14*
X119837500Y-111622742D02*
X119837500Y-112097258D01*
X120882500Y-111622742D02*
X120882500Y-112097258D01*
X121045000Y-109380000D02*
X121045000Y-106895000D01*
X121045000Y-106895000D02*
X119675000Y-106895000D01*
X119675000Y-106895000D02*
X119675000Y-109380000D01*
X104782742Y-139942500D02*
X105257258Y-139942500D01*
X104782742Y-138897500D02*
X105257258Y-138897500D01*
X100175000Y-140115000D02*
X102660000Y-140115000D01*
X100175000Y-138745000D02*
X100175000Y-140115000D01*
X102660000Y-138745000D02*
X100175000Y-138745000D01*
X120955000Y-157078748D02*
X120955000Y-157601252D01*
X119485000Y-157078748D02*
X119485000Y-157601252D01*
X112015000Y-128871252D02*
X112015000Y-128348748D01*
X113485000Y-128871252D02*
X113485000Y-128348748D01*
X106445000Y-128901252D02*
X106445000Y-128378748D01*
X107915000Y-128901252D02*
X107915000Y-128378748D01*
X110441252Y-114425000D02*
X109918748Y-114425000D01*
X110441252Y-112955000D02*
X109918748Y-112955000D01*
D10*
X103660000Y-107520000D02*
X96560000Y-107520000D01*
X103660000Y-116320000D02*
X96560000Y-116320000D01*
X96560000Y-116320000D02*
X96560000Y-107520000D01*
X103660000Y-107520000D02*
X103660000Y-116320000D01*
X97660000Y-116120000D02*
X97660000Y-107720000D01*
D16*
X103180000Y-111920000D02*
X96860000Y-111920000D01*
D14*
X152320000Y-144550000D02*
X153570000Y-144550000D01*
X152320000Y-143300000D02*
X152320000Y-144550000D01*
X156730000Y-141190000D02*
X156230000Y-141190000D01*
X156230000Y-141090000D02*
X156730000Y-141090000D01*
X156230000Y-141290000D02*
X156230000Y-141090000D01*
X156730000Y-141290000D02*
X156230000Y-141290000D01*
X155230000Y-138130000D02*
X155230000Y-138740000D01*
X153930000Y-138130000D02*
X153930000Y-138740000D01*
X155230000Y-144250000D02*
X155230000Y-143640000D01*
X153930000Y-144250000D02*
X153930000Y-143640000D01*
X153230000Y-140690000D02*
X152620000Y-140690000D01*
X153230000Y-138740000D02*
X153230000Y-140690000D01*
X156730000Y-138740000D02*
X153230000Y-138740000D01*
X156730000Y-143640000D02*
X156730000Y-138740000D01*
X153230000Y-143640000D02*
X156730000Y-143640000D01*
X153230000Y-141690000D02*
X153230000Y-143640000D01*
X152620000Y-141690000D02*
X153230000Y-141690000D01*
X152520000Y-142490000D02*
X152520000Y-142790000D01*
X152420000Y-142790000D02*
X152620000Y-142790000D01*
X152420000Y-142490000D02*
X152420000Y-142790000D01*
X152620000Y-142490000D02*
X152420000Y-142490000D01*
X152620000Y-138130000D02*
X152620000Y-144250000D01*
X157340000Y-138130000D02*
X152620000Y-138130000D01*
X157340000Y-144250000D02*
X157340000Y-138130000D01*
X152620000Y-144250000D02*
X157340000Y-144250000D01*
X151060000Y-134910000D02*
X151060000Y-135190000D01*
X151060000Y-135190000D02*
X149460000Y-135190000D01*
X149460000Y-135190000D02*
X149460000Y-136110000D01*
X149460000Y-136110000D02*
X157280000Y-136110000D01*
X157280000Y-136110000D02*
X157280000Y-125990000D01*
X157280000Y-125990000D02*
X149460000Y-125990000D01*
X149460000Y-125990000D02*
X149460000Y-126910000D01*
X149460000Y-126910000D02*
X151060000Y-126910000D01*
X151060000Y-126910000D02*
X151060000Y-127190000D01*
X157280000Y-133550000D02*
X152920000Y-133550000D01*
X152920000Y-133550000D02*
X152920000Y-128550000D01*
X152920000Y-128550000D02*
X157280000Y-128550000D01*
X151060000Y-136110000D02*
X151060000Y-135190000D01*
X151060000Y-125990000D02*
X151060000Y-126910000D01*
X153420000Y-135350000D02*
X155020000Y-135350000D01*
X155020000Y-135350000D02*
X155020000Y-134350000D01*
X155020000Y-134350000D02*
X153420000Y-134350000D01*
X153420000Y-134350000D02*
X153420000Y-135350000D01*
X153420000Y-126750000D02*
X155020000Y-126750000D01*
X155020000Y-126750000D02*
X155020000Y-127750000D01*
X155020000Y-127750000D02*
X153420000Y-127750000D01*
X153420000Y-127750000D02*
X153420000Y-126750000D01*
X155020000Y-134350000D02*
X157280000Y-134350000D01*
X155020000Y-134850000D02*
X157280000Y-134850000D01*
X151060000Y-134910000D02*
X149845000Y-134910000D01*
X151050000Y-124280000D02*
X149835000Y-124280000D01*
X155010000Y-124220000D02*
X157270000Y-124220000D01*
X155010000Y-123720000D02*
X157270000Y-123720000D01*
X153410000Y-117120000D02*
X153410000Y-116120000D01*
X155010000Y-117120000D02*
X153410000Y-117120000D01*
X155010000Y-116120000D02*
X155010000Y-117120000D01*
X153410000Y-116120000D02*
X155010000Y-116120000D01*
X153410000Y-123720000D02*
X153410000Y-124720000D01*
X155010000Y-123720000D02*
X153410000Y-123720000D01*
X155010000Y-124720000D02*
X155010000Y-123720000D01*
X153410000Y-124720000D02*
X155010000Y-124720000D01*
X151050000Y-115360000D02*
X151050000Y-116280000D01*
X151050000Y-125480000D02*
X151050000Y-124560000D01*
X152910000Y-117920000D02*
X157270000Y-117920000D01*
X152910000Y-122920000D02*
X152910000Y-117920000D01*
X157270000Y-122920000D02*
X152910000Y-122920000D01*
X151050000Y-116280000D02*
X151050000Y-116560000D01*
X149450000Y-116280000D02*
X151050000Y-116280000D01*
X149450000Y-115360000D02*
X149450000Y-116280000D01*
X157270000Y-115360000D02*
X149450000Y-115360000D01*
X157270000Y-125480000D02*
X157270000Y-115360000D01*
X149450000Y-125480000D02*
X157270000Y-125480000D01*
X149450000Y-124560000D02*
X149450000Y-125480000D01*
X151050000Y-124560000D02*
X149450000Y-124560000D01*
X151050000Y-124280000D02*
X151050000Y-124560000D01*
X151050000Y-113670000D02*
X149835000Y-113670000D01*
X155010000Y-113610000D02*
X157270000Y-113610000D01*
X155010000Y-113110000D02*
X157270000Y-113110000D01*
X153410000Y-106510000D02*
X153410000Y-105510000D01*
X155010000Y-106510000D02*
X153410000Y-106510000D01*
X155010000Y-105510000D02*
X155010000Y-106510000D01*
X153410000Y-105510000D02*
X155010000Y-105510000D01*
X153410000Y-113110000D02*
X153410000Y-114110000D01*
X155010000Y-113110000D02*
X153410000Y-113110000D01*
X155010000Y-114110000D02*
X155010000Y-113110000D01*
X153410000Y-114110000D02*
X155010000Y-114110000D01*
X151050000Y-104750000D02*
X151050000Y-105670000D01*
X151050000Y-114870000D02*
X151050000Y-113950000D01*
X152910000Y-107310000D02*
X157270000Y-107310000D01*
X152910000Y-112310000D02*
X152910000Y-107310000D01*
X157270000Y-112310000D02*
X152910000Y-112310000D01*
X151050000Y-105670000D02*
X151050000Y-105950000D01*
X149450000Y-105670000D02*
X151050000Y-105670000D01*
X149450000Y-104750000D02*
X149450000Y-105670000D01*
X157270000Y-104750000D02*
X149450000Y-104750000D01*
X157270000Y-114870000D02*
X157270000Y-104750000D01*
X149450000Y-114870000D02*
X157270000Y-114870000D01*
X149450000Y-113950000D02*
X149450000Y-114870000D01*
X151050000Y-113950000D02*
X149450000Y-113950000D01*
X151050000Y-113670000D02*
X151050000Y-113950000D01*
X151070000Y-102990000D02*
X149855000Y-102990000D01*
X155030000Y-102930000D02*
X157290000Y-102930000D01*
X155030000Y-102430000D02*
X157290000Y-102430000D01*
X153430000Y-95830000D02*
X153430000Y-94830000D01*
X155030000Y-95830000D02*
X153430000Y-95830000D01*
X155030000Y-94830000D02*
X155030000Y-95830000D01*
X153430000Y-94830000D02*
X155030000Y-94830000D01*
X153430000Y-102430000D02*
X153430000Y-103430000D01*
X155030000Y-102430000D02*
X153430000Y-102430000D01*
X155030000Y-103430000D02*
X155030000Y-102430000D01*
X153430000Y-103430000D02*
X155030000Y-103430000D01*
X151070000Y-94070000D02*
X151070000Y-94990000D01*
X151070000Y-104190000D02*
X151070000Y-103270000D01*
X152930000Y-96630000D02*
X157290000Y-96630000D01*
X152930000Y-101630000D02*
X152930000Y-96630000D01*
X157290000Y-101630000D02*
X152930000Y-101630000D01*
X151070000Y-94990000D02*
X151070000Y-95270000D01*
X149470000Y-94990000D02*
X151070000Y-94990000D01*
X149470000Y-94070000D02*
X149470000Y-94990000D01*
X157290000Y-94070000D02*
X149470000Y-94070000D01*
X157290000Y-104190000D02*
X157290000Y-94070000D01*
X149470000Y-104190000D02*
X157290000Y-104190000D01*
X149470000Y-103270000D02*
X149470000Y-104190000D01*
X151070000Y-103270000D02*
X149470000Y-103270000D01*
X151070000Y-102990000D02*
X151070000Y-103270000D01*
X151080000Y-92370000D02*
X149865000Y-92370000D01*
X155040000Y-92310000D02*
X157300000Y-92310000D01*
X155040000Y-91810000D02*
X157300000Y-91810000D01*
X153440000Y-85210000D02*
X153440000Y-84210000D01*
X155040000Y-85210000D02*
X153440000Y-85210000D01*
X155040000Y-84210000D02*
X155040000Y-85210000D01*
X153440000Y-84210000D02*
X155040000Y-84210000D01*
X153440000Y-91810000D02*
X153440000Y-92810000D01*
X155040000Y-91810000D02*
X153440000Y-91810000D01*
X155040000Y-92810000D02*
X155040000Y-91810000D01*
X153440000Y-92810000D02*
X155040000Y-92810000D01*
X151080000Y-83450000D02*
X151080000Y-84370000D01*
X151080000Y-93570000D02*
X151080000Y-92650000D01*
X152940000Y-86010000D02*
X157300000Y-86010000D01*
X152940000Y-91010000D02*
X152940000Y-86010000D01*
X157300000Y-91010000D02*
X152940000Y-91010000D01*
X151080000Y-84370000D02*
X151080000Y-84650000D01*
X149480000Y-84370000D02*
X151080000Y-84370000D01*
X149480000Y-83450000D02*
X149480000Y-84370000D01*
X157300000Y-83450000D02*
X149480000Y-83450000D01*
X157300000Y-93570000D02*
X157300000Y-83450000D01*
X149480000Y-93570000D02*
X157300000Y-93570000D01*
X149480000Y-92650000D02*
X149480000Y-93570000D01*
X151080000Y-92650000D02*
X149480000Y-92650000D01*
X151080000Y-92370000D02*
X151080000Y-92650000D01*
X110230000Y-118990000D02*
X108530000Y-118990000D01*
X108530000Y-118990000D02*
X108530000Y-121540000D01*
X110230000Y-118990000D02*
X110230000Y-121540000D01*
X128422936Y-153740000D02*
X132777064Y-153740000D01*
X128422936Y-150320000D02*
X132777064Y-150320000D01*
X133437500Y-157547258D02*
X133437500Y-157072742D01*
X134482500Y-157547258D02*
X134482500Y-157072742D01*
X143140000Y-147050000D02*
X141440000Y-147050000D01*
X137620000Y-147050000D02*
X139320000Y-147050000D01*
X137620000Y-151505563D02*
X137620000Y-147050000D01*
X143140000Y-151505563D02*
X143140000Y-147050000D01*
X142075563Y-152570000D02*
X141440000Y-152570000D01*
X138684437Y-152570000D02*
X139320000Y-152570000D01*
X138684437Y-152570000D02*
X137620000Y-151505563D01*
X142075563Y-152570000D02*
X143140000Y-151505563D01*
X138695000Y-153435000D02*
X138695000Y-152810000D01*
X138382500Y-153122500D02*
X139007500Y-153122500D01*
D17*
X108990000Y-150990000D02*
X122790000Y-150990000D01*
X122790000Y-138390000D02*
X108990000Y-138390000D01*
X106750000Y-141130000D02*
X101550000Y-141130000D01*
X106750000Y-152030000D02*
X106750000Y-141130000D01*
X96950000Y-152030000D02*
X106750000Y-152030000D01*
X96950000Y-143630000D02*
X96950000Y-152030000D01*
X141410000Y-156780000D02*
X141410000Y-156780000D01*
X141410000Y-156980000D02*
X141410000Y-156980000D01*
D10*
X142610000Y-159230000D02*
X145060000Y-159230000D01*
X142610000Y-156330000D02*
X145210000Y-156330000D01*
D17*
X141410000Y-156980000D02*
G75*
G03*
X141410000Y-156780000I0J100000D01*
G01*
X141410000Y-156780000D02*
G75*
G03*
X141410000Y-156980000I0J-100000D01*
G01*
D14*
X127050000Y-115210000D02*
X124250000Y-115210000D01*
X123600000Y-114510000D02*
X123600000Y-113910000D01*
X124250000Y-113210000D02*
X127050000Y-113210000D01*
X127700000Y-113910000D02*
X127700000Y-114510000D01*
X127700000Y-114510000D02*
G75*
G02*
X127000000Y-115210000I-700000J0D01*
G01*
X127000000Y-113210000D02*
G75*
G02*
X127700000Y-113910000I0J-700000D01*
G01*
X123600000Y-113910000D02*
G75*
G02*
X124300000Y-113210000I700000J0D01*
G01*
X124300000Y-115210000D02*
G75*
G02*
X123600000Y-114510000I0J700000D01*
G01*
X119545000Y-109390000D02*
X119545000Y-106905000D01*
X119545000Y-106905000D02*
X118175000Y-106905000D01*
X118175000Y-106905000D02*
X118175000Y-109390000D01*
X116645000Y-106905000D02*
X116645000Y-109390000D01*
X118015000Y-106905000D02*
X116645000Y-106905000D01*
X118015000Y-109390000D02*
X118015000Y-106905000D01*
X116405000Y-133120000D02*
X116405000Y-130635000D01*
X116405000Y-130635000D02*
X115035000Y-130635000D01*
X115035000Y-130635000D02*
X115035000Y-133120000D01*
X118340000Y-111627221D02*
X118340000Y-111952779D01*
X119360000Y-111627221D02*
X119360000Y-111952779D01*
X116810000Y-111627221D02*
X116810000Y-111952779D01*
X117830000Y-111627221D02*
X117830000Y-111952779D01*
X100050000Y-87331422D02*
X100050000Y-87848578D01*
X101470000Y-87331422D02*
X101470000Y-87848578D01*
X100010000Y-82798578D02*
X100010000Y-82281422D01*
X98590000Y-82798578D02*
X98590000Y-82281422D01*
D17*
X107442703Y-110038439D02*
X108485685Y-111081421D01*
X107354315Y-110798579D02*
X108061421Y-111505685D01*
X107625685Y-108961421D02*
X106918579Y-108254315D01*
X107537297Y-109721561D02*
X106494315Y-108678579D01*
X106400000Y-114440000D02*
X106400000Y-115440000D01*
X107000000Y-113965000D02*
X107000000Y-115440000D01*
D14*
X109720000Y-132140000D02*
X111120000Y-132140000D01*
X111820000Y-132840000D02*
X111820000Y-133440000D01*
X111120000Y-134140000D02*
X109720000Y-134140000D01*
X109020000Y-133440000D02*
X109020000Y-132840000D01*
X109020000Y-132840000D02*
G75*
G02*
X109720000Y-132140000I700000J0D01*
G01*
X109720000Y-134140000D02*
G75*
G02*
X109020000Y-133440000I0J700000D01*
G01*
X111820000Y-133440000D02*
G75*
G02*
X111120000Y-134140000I-700000J0D01*
G01*
X111120000Y-132140000D02*
G75*
G02*
X111820000Y-132840000I0J-700000D01*
G01*
X114015000Y-106550000D02*
X114490000Y-106550000D01*
X114490000Y-106550000D02*
X114490000Y-107025000D01*
X110745000Y-110770000D02*
X110270000Y-110770000D01*
X110270000Y-110770000D02*
X110270000Y-110295000D01*
X114015000Y-110770000D02*
X114490000Y-110770000D01*
X114490000Y-110770000D02*
X114490000Y-110295000D01*
X110745000Y-106550000D02*
X110270000Y-106550000D01*
D12*
X101510000Y-81570000D02*
X101510000Y-81570000D01*
X101610000Y-81570000D02*
X101610000Y-81570000D01*
D10*
X120610000Y-99820000D02*
X120610000Y-99070000D01*
X118110000Y-99820000D02*
X120610000Y-99820000D01*
X102610000Y-99820000D02*
X105110000Y-99820000D01*
X102610000Y-99070000D02*
X102610000Y-99820000D01*
X120610000Y-74320000D02*
X120610000Y-81070000D01*
X102610000Y-74320000D02*
X120610000Y-74320000D01*
X102610000Y-81070000D02*
X102610000Y-74320000D01*
D12*
X101610000Y-81570000D02*
G75*
G02*
X101510000Y-81570000I-50000J0D01*
G01*
X101510000Y-81570000D02*
G75*
G02*
X101610000Y-81570000I50000J0D01*
G01*
D14*
X149150000Y-139067221D02*
X149150000Y-139392779D01*
X150170000Y-139067221D02*
X150170000Y-139392779D01*
X113440000Y-103490000D02*
X113440000Y-101590000D01*
X111120000Y-102090000D02*
X111120000Y-103490000D01*
X149270000Y-77657221D02*
X149270000Y-77982779D01*
X150290000Y-77657221D02*
X150290000Y-77982779D01*
X147740000Y-77657221D02*
X147740000Y-77982779D01*
X148760000Y-77657221D02*
X148760000Y-77982779D01*
D17*
X155465000Y-77804000D02*
X155465000Y-79204000D01*
X152465000Y-77804000D02*
X152465000Y-79204000D01*
D18*
X152808000Y-76641000D02*
G75*
G03*
X152808000Y-76641000I-29000J0D01*
G01*
D14*
X153002779Y-80530000D02*
X152677221Y-80530000D01*
X153002779Y-81550000D02*
X152677221Y-81550000D01*
X153002779Y-81890000D02*
X152677221Y-81890000D01*
X153002779Y-82910000D02*
X152677221Y-82910000D01*
D17*
X133440000Y-126295000D02*
X135540000Y-126295000D01*
X135890000Y-130990000D02*
X135890000Y-126390000D01*
X141690000Y-130990000D02*
X135890000Y-130990000D01*
X141690000Y-126390000D02*
X141690000Y-130990000D01*
X135890000Y-126390000D02*
X141690000Y-126390000D01*
X133480000Y-120805000D02*
X135580000Y-120805000D01*
X135930000Y-125500000D02*
X135930000Y-120900000D01*
X141730000Y-125500000D02*
X135930000Y-125500000D01*
X141730000Y-120900000D02*
X141730000Y-125500000D01*
X135930000Y-120900000D02*
X141730000Y-120900000D01*
X133480000Y-115305000D02*
X135580000Y-115305000D01*
X135930000Y-120000000D02*
X135930000Y-115400000D01*
X141730000Y-120000000D02*
X135930000Y-120000000D01*
X141730000Y-115400000D02*
X141730000Y-120000000D01*
X135930000Y-115400000D02*
X141730000Y-115400000D01*
X133480000Y-109805000D02*
X135580000Y-109805000D01*
X135930000Y-114500000D02*
X135930000Y-109900000D01*
X141730000Y-114500000D02*
X135930000Y-114500000D01*
X141730000Y-109900000D02*
X141730000Y-114500000D01*
X135930000Y-109900000D02*
X141730000Y-109900000D01*
X133480000Y-104305000D02*
X135580000Y-104305000D01*
X135930000Y-109000000D02*
X135930000Y-104400000D01*
X141730000Y-109000000D02*
X135930000Y-109000000D01*
X141730000Y-104400000D02*
X141730000Y-109000000D01*
X135930000Y-104400000D02*
X141730000Y-104400000D01*
X133480000Y-98585000D02*
X135580000Y-98585000D01*
X135930000Y-103280000D02*
X135930000Y-98680000D01*
X141730000Y-103280000D02*
X135930000Y-103280000D01*
X141730000Y-98680000D02*
X141730000Y-103280000D01*
X135930000Y-98680000D02*
X141730000Y-98680000D01*
X133480000Y-93085000D02*
X135580000Y-93085000D01*
X135930000Y-97780000D02*
X135930000Y-93180000D01*
X141730000Y-97780000D02*
X135930000Y-97780000D01*
X141730000Y-93180000D02*
X141730000Y-97780000D01*
X135930000Y-93180000D02*
X141730000Y-93180000D01*
X133480000Y-87585000D02*
X135580000Y-87585000D01*
X135930000Y-92280000D02*
X135930000Y-87680000D01*
X141730000Y-92280000D02*
X135930000Y-92280000D01*
X141730000Y-87680000D02*
X141730000Y-92280000D01*
X135930000Y-87680000D02*
X141730000Y-87680000D01*
X133480000Y-82085000D02*
X135580000Y-82085000D01*
X135930000Y-86780000D02*
X135930000Y-82180000D01*
X141730000Y-86780000D02*
X135930000Y-86780000D01*
X141730000Y-82180000D02*
X141730000Y-86780000D01*
X135930000Y-82180000D02*
X141730000Y-82180000D01*
X133480000Y-76585000D02*
X135580000Y-76585000D01*
X135930000Y-81280000D02*
X135930000Y-76680000D01*
X141730000Y-81280000D02*
X135930000Y-81280000D01*
X141730000Y-76680000D02*
X141730000Y-81280000D01*
X135930000Y-76680000D02*
X141730000Y-76680000D01*
D10*
X118200000Y-102570000D02*
X124200000Y-102570000D01*
X118200000Y-106120000D02*
X124200000Y-106070000D01*
D14*
X115260000Y-113367221D02*
X115260000Y-113692779D01*
X116280000Y-113367221D02*
X116280000Y-113692779D01*
X114780000Y-113692779D02*
X114780000Y-113367221D01*
X113760000Y-113692779D02*
X113760000Y-113367221D01*
X112250000Y-113357221D02*
X112250000Y-113682779D01*
X113270000Y-113357221D02*
X113270000Y-113682779D01*
X131082779Y-126900000D02*
X130757221Y-126900000D01*
X131082779Y-127920000D02*
X130757221Y-127920000D01*
X131032779Y-121410000D02*
X130707221Y-121410000D01*
X131032779Y-122430000D02*
X130707221Y-122430000D01*
X131072779Y-116980000D02*
X130747221Y-116980000D01*
X131072779Y-118000000D02*
X130747221Y-118000000D01*
X131092779Y-113750000D02*
X130767221Y-113750000D01*
X131092779Y-114770000D02*
X130767221Y-114770000D01*
X131092779Y-104890000D02*
X130767221Y-104890000D01*
X131092779Y-105910000D02*
X130767221Y-105910000D01*
X131092779Y-99170000D02*
X130767221Y-99170000D01*
X131092779Y-100190000D02*
X130767221Y-100190000D01*
X131092779Y-93770000D02*
X130767221Y-93770000D01*
X131092779Y-94790000D02*
X130767221Y-94790000D01*
X131092779Y-88170000D02*
X130767221Y-88170000D01*
X131092779Y-89190000D02*
X130767221Y-89190000D01*
X130992779Y-82670000D02*
X130667221Y-82670000D01*
X130992779Y-83690000D02*
X130667221Y-83690000D01*
X130992779Y-77170000D02*
X130667221Y-77170000D01*
X130992779Y-78190000D02*
X130667221Y-78190000D01*
X100077221Y-85550000D02*
X100402779Y-85550000D01*
X100077221Y-84530000D02*
X100402779Y-84530000D01*
X118080000Y-117160000D02*
X115630000Y-117160000D01*
X116280000Y-120380000D02*
X118080000Y-120380000D01*
X119340000Y-118447221D02*
X119340000Y-118772779D01*
X120360000Y-118447221D02*
X120360000Y-118772779D01*
X114750000Y-117202779D02*
X114750000Y-116877221D01*
X113730000Y-117202779D02*
X113730000Y-116877221D01*
X110512779Y-111560000D02*
X110187221Y-111560000D01*
X110512779Y-112580000D02*
X110187221Y-112580000D01*
X101570000Y-82492779D02*
X101570000Y-82167221D01*
X100550000Y-82492779D02*
X100550000Y-82167221D01*
X108520000Y-125210000D02*
X108520000Y-122660000D01*
X110220000Y-125210000D02*
X110220000Y-122660000D01*
X108520000Y-125210000D02*
X110220000Y-125210000D01*
X113080000Y-125270000D02*
X111620000Y-125270000D01*
X113080000Y-122110000D02*
X110920000Y-122110000D01*
X113080000Y-122110000D02*
X113080000Y-123040000D01*
X113080000Y-125270000D02*
X113080000Y-124340000D01*
X106692779Y-130980000D02*
X106367221Y-130980000D01*
X106692779Y-132000000D02*
X106367221Y-132000000D01*
X108270000Y-122092779D02*
X108270000Y-121767221D01*
X107250000Y-122092779D02*
X107250000Y-121767221D01*
X113277221Y-133580000D02*
X113602779Y-133580000D01*
X113277221Y-132560000D02*
X113602779Y-132560000D01*
X109070000Y-132150000D02*
X111520000Y-132150000D01*
X110870000Y-128930000D02*
X109070000Y-128930000D01*
X121420580Y-124060000D02*
X121139420Y-124060000D01*
X121420580Y-123040000D02*
X121139420Y-123040000D01*
X121420580Y-125580000D02*
X121139420Y-125580000D01*
X121420580Y-124560000D02*
X121139420Y-124560000D01*
X119910580Y-127330000D02*
X119629420Y-127330000D01*
X119910580Y-128350000D02*
X119629420Y-128350000D01*
X126710000Y-126270580D02*
X126710000Y-125989420D01*
X125690000Y-126270580D02*
X125690000Y-125989420D01*
X104871250Y-155766250D02*
X104083750Y-155766250D01*
X104477500Y-155372500D02*
X104477500Y-156160000D01*
X100284437Y-156400000D02*
X99220000Y-157464437D01*
X104975563Y-156400000D02*
X106040000Y-157464437D01*
X104975563Y-156400000D02*
X103690000Y-156400000D01*
X100284437Y-156400000D02*
X101570000Y-156400000D01*
X99220000Y-157464437D02*
X99220000Y-163220000D01*
X106040000Y-157464437D02*
X106040000Y-163220000D01*
X106040000Y-163220000D02*
X103690000Y-163220000D01*
X99220000Y-163220000D02*
X101570000Y-163220000D01*
X136070000Y-160909420D02*
X136070000Y-161190580D01*
X135050000Y-160909420D02*
X135050000Y-161190580D01*
X127129420Y-164110000D02*
X127410580Y-164110000D01*
X127129420Y-163090000D02*
X127410580Y-163090000D01*
X137145000Y-151321252D02*
X137145000Y-150798748D01*
X135675000Y-151321252D02*
X135675000Y-150798748D01*
X149189420Y-155090000D02*
X149470580Y-155090000D01*
X149189420Y-154070000D02*
X149470580Y-154070000D01*
D17*
X102550000Y-153075000D02*
X99850000Y-153075000D01*
X103320000Y-154725000D02*
X99850000Y-154725000D01*
D14*
X133920000Y-164857000D02*
X131435000Y-164857000D01*
X131435000Y-164857000D02*
X131435000Y-166227000D01*
X131435000Y-166227000D02*
X133920000Y-166227000D01*
X131455000Y-164677000D02*
X133940000Y-164677000D01*
X131455000Y-163307000D02*
X131455000Y-164677000D01*
X133940000Y-163307000D02*
X131455000Y-163307000D01*
D17*
X113230000Y-152735000D02*
X113230000Y-160685000D01*
X119130000Y-160685000D02*
X119130000Y-152135000D01*
X112760000Y-160615000D02*
X112760000Y-152065000D01*
X106860000Y-152665000D02*
X106860000Y-160615000D01*
X122945000Y-126060000D02*
X123795000Y-126060000D01*
X123795000Y-126060000D02*
X123795000Y-128960000D01*
X123795000Y-128960000D02*
X122945000Y-128960000D01*
X122945000Y-128960000D02*
X122945000Y-126060000D01*
X121545000Y-125960000D02*
X122595000Y-125960000D01*
X127620000Y-160800000D02*
X127620000Y-157600000D01*
X127620000Y-157600000D02*
X132520000Y-157600000D01*
X132520000Y-157600000D02*
X132520000Y-160800000D01*
X132520000Y-160800000D02*
X127620000Y-160800000D01*
X127395000Y-162675000D02*
X127395000Y-161150000D01*
D14*
X126110000Y-156660000D02*
X126110000Y-158120000D01*
X122950000Y-156660000D02*
X122950000Y-158820000D01*
X122950000Y-156660000D02*
X123880000Y-156660000D01*
X126110000Y-156660000D02*
X125180000Y-156660000D01*
D17*
X147110000Y-150700000D02*
X147110000Y-149500000D01*
X150085000Y-149150000D02*
X147135000Y-149150000D01*
X150085000Y-148550000D02*
X150085000Y-149150000D01*
X147135000Y-148550000D02*
X150085000Y-148550000D01*
X147135000Y-149150000D02*
X147135000Y-148550000D01*
D14*
X127197258Y-128117500D02*
X126722742Y-128117500D01*
X127197258Y-129162500D02*
X126722742Y-129162500D01*
X134512500Y-161287258D02*
X134512500Y-160812742D01*
X133467500Y-161287258D02*
X133467500Y-160812742D01*
X128482742Y-165017500D02*
X128957258Y-165017500D01*
X128482742Y-166062500D02*
X128957258Y-166062500D01*
X135982500Y-157072742D02*
X135982500Y-157547258D01*
X134937500Y-157072742D02*
X134937500Y-157547258D01*
X153042500Y-159522742D02*
X153042500Y-159997258D01*
X151997500Y-159522742D02*
X151997500Y-159997258D01*
X145682742Y-155102500D02*
X146157258Y-155102500D01*
X145682742Y-154057500D02*
X146157258Y-154057500D01*
X145232742Y-152582500D02*
X145707258Y-152582500D01*
X145232742Y-151537500D02*
X145707258Y-151537500D01*
X100900000Y-119330000D02*
X103500000Y-119330000D01*
X105650000Y-125630000D02*
X105400000Y-125630000D01*
X105650000Y-119330000D02*
X105650000Y-125630000D01*
X105400000Y-119330000D02*
X105650000Y-119330000D01*
X103500000Y-125630000D02*
X100900000Y-125630000D01*
X98750000Y-119330000D02*
X99000000Y-119330000D01*
X98750000Y-125630000D02*
X98750000Y-119330000D01*
X99000000Y-125630000D02*
X98750000Y-125630000D01*
D10*
X148810000Y-163160000D02*
X142810000Y-163160000D01*
X148810000Y-159610000D02*
X142810000Y-159660000D01*
D14*
X121370000Y-157029420D02*
X121370000Y-157310580D01*
X122390000Y-157029420D02*
X122390000Y-157310580D01*
D17*
X151190000Y-159380000D02*
X149990000Y-159380000D01*
X149640000Y-156330000D02*
X149640000Y-159230000D01*
X149040000Y-156330000D02*
X149640000Y-156330000D01*
X149040000Y-159230000D02*
X149040000Y-156330000D01*
X149640000Y-159230000D02*
X149040000Y-159230000D01*
D14*
X144960000Y-75680000D02*
X144960000Y-70960000D01*
X144960000Y-70960000D02*
X134840000Y-70960000D01*
X134840000Y-70960000D02*
X134840000Y-75680000D01*
X134840000Y-75680000D02*
X144960000Y-75680000D01*
X143200000Y-75680000D02*
X143200000Y-75880000D01*
X143200000Y-75880000D02*
X143500000Y-75880000D01*
X143500000Y-75880000D02*
X143500000Y-75680000D01*
X143200000Y-75780000D02*
X143500000Y-75780000D01*
X142400000Y-75680000D02*
X142400000Y-75070000D01*
X142400000Y-75070000D02*
X144350000Y-75070000D01*
X144350000Y-75070000D02*
X144350000Y-71570000D01*
X144350000Y-71570000D02*
X135450000Y-71570000D01*
X135450000Y-71570000D02*
X135450000Y-75070000D01*
X135450000Y-75070000D02*
X137400000Y-75070000D01*
X137400000Y-75070000D02*
X137400000Y-75680000D01*
X144960000Y-74370000D02*
X144350000Y-74370000D01*
X144960000Y-73070000D02*
X144350000Y-73070000D01*
X134840000Y-74370000D02*
X135450000Y-74370000D01*
X134840000Y-73070000D02*
X135450000Y-73070000D01*
X142000000Y-71570000D02*
X142000000Y-72070000D01*
X142000000Y-72070000D02*
X141800000Y-72070000D01*
X141800000Y-72070000D02*
X141800000Y-71570000D01*
X141900000Y-71570000D02*
X141900000Y-72070000D01*
X140000000Y-71570000D02*
X140000000Y-72070000D01*
X140000000Y-72070000D02*
X139800000Y-72070000D01*
X139800000Y-72070000D02*
X139800000Y-71570000D01*
X139900000Y-71570000D02*
X139900000Y-72070000D01*
X138000000Y-71570000D02*
X138000000Y-72070000D01*
X138000000Y-72070000D02*
X137800000Y-72070000D01*
X137800000Y-72070000D02*
X137800000Y-71570000D01*
X137900000Y-71570000D02*
X137900000Y-72070000D01*
X144010000Y-75980000D02*
X145260000Y-75980000D01*
X145260000Y-75980000D02*
X145260000Y-74730000D01*
X152610000Y-150870000D02*
X157330000Y-150870000D01*
X157330000Y-150870000D02*
X157330000Y-144750000D01*
X157330000Y-144750000D02*
X152610000Y-144750000D01*
X152610000Y-144750000D02*
X152610000Y-150870000D01*
X152610000Y-149110000D02*
X152410000Y-149110000D01*
X152410000Y-149110000D02*
X152410000Y-149410000D01*
X152410000Y-149410000D02*
X152610000Y-149410000D01*
X152510000Y-149110000D02*
X152510000Y-149410000D01*
X152610000Y-148310000D02*
X153220000Y-148310000D01*
X153220000Y-148310000D02*
X153220000Y-150260000D01*
X153220000Y-150260000D02*
X156720000Y-150260000D01*
X156720000Y-150260000D02*
X156720000Y-145360000D01*
X156720000Y-145360000D02*
X153220000Y-145360000D01*
X153220000Y-145360000D02*
X153220000Y-147310000D01*
X153220000Y-147310000D02*
X152610000Y-147310000D01*
X153920000Y-150870000D02*
X153920000Y-150260000D01*
X155220000Y-150870000D02*
X155220000Y-150260000D01*
X153920000Y-144750000D02*
X153920000Y-145360000D01*
X155220000Y-144750000D02*
X155220000Y-145360000D01*
X156720000Y-147910000D02*
X156220000Y-147910000D01*
X156220000Y-147910000D02*
X156220000Y-147710000D01*
X156220000Y-147710000D02*
X156720000Y-147710000D01*
X156720000Y-147810000D02*
X156220000Y-147810000D01*
X152310000Y-149920000D02*
X152310000Y-151170000D01*
X152310000Y-151170000D02*
X153560000Y-151170000D01*
X125650000Y-133590000D02*
X125650000Y-138310000D01*
X125650000Y-138310000D02*
X133770000Y-138310000D01*
X133770000Y-138310000D02*
X133770000Y-133590000D01*
X133770000Y-133590000D02*
X125650000Y-133590000D01*
X127410000Y-133590000D02*
X127410000Y-133390000D01*
X127410000Y-133390000D02*
X127110000Y-133390000D01*
X127110000Y-133390000D02*
X127110000Y-133590000D01*
X127410000Y-133490000D02*
X127110000Y-133490000D01*
X128210000Y-133590000D02*
X128210000Y-134200000D01*
X128210000Y-134200000D02*
X126260000Y-134200000D01*
X126260000Y-134200000D02*
X126260000Y-137700000D01*
X126260000Y-137700000D02*
X133160000Y-137700000D01*
X133160000Y-137700000D02*
X133160000Y-134200000D01*
X133160000Y-134200000D02*
X131210000Y-134200000D01*
X131210000Y-134200000D02*
X131210000Y-133590000D01*
X125650000Y-134900000D02*
X126260000Y-134900000D01*
X125650000Y-136200000D02*
X126260000Y-136200000D01*
X133770000Y-134900000D02*
X133160000Y-134900000D01*
X133770000Y-136200000D02*
X133160000Y-136200000D01*
X128610000Y-137700000D02*
X128610000Y-137200000D01*
X128610000Y-137200000D02*
X128810000Y-137200000D01*
X128810000Y-137200000D02*
X128810000Y-137700000D01*
X128710000Y-137700000D02*
X128710000Y-137200000D01*
X130610000Y-137700000D02*
X130610000Y-137200000D01*
X130610000Y-137200000D02*
X130810000Y-137200000D01*
X130810000Y-137200000D02*
X130810000Y-137700000D01*
X130710000Y-137700000D02*
X130710000Y-137200000D01*
X126600000Y-133290000D02*
X125350000Y-133290000D01*
X125350000Y-133290000D02*
X125350000Y-134540000D01*
X121140000Y-106530000D02*
X121140000Y-107780000D01*
X122390000Y-106530000D02*
X121140000Y-106530000D01*
X128500000Y-110940000D02*
X128500000Y-110440000D01*
X128600000Y-110440000D02*
X128600000Y-110940000D01*
X128400000Y-110440000D02*
X128600000Y-110440000D01*
X128400000Y-110940000D02*
X128400000Y-110440000D01*
X126500000Y-110940000D02*
X126500000Y-110440000D01*
X126600000Y-110440000D02*
X126600000Y-110940000D01*
X126400000Y-110440000D02*
X126600000Y-110440000D01*
X126400000Y-110940000D02*
X126400000Y-110440000D01*
X124500000Y-110940000D02*
X124500000Y-110440000D01*
X124600000Y-110440000D02*
X124600000Y-110940000D01*
X124400000Y-110440000D02*
X124600000Y-110440000D01*
X124400000Y-110940000D02*
X124400000Y-110440000D01*
X131560000Y-109440000D02*
X130950000Y-109440000D01*
X131560000Y-108140000D02*
X130950000Y-108140000D01*
X121440000Y-109440000D02*
X122050000Y-109440000D01*
X121440000Y-108140000D02*
X122050000Y-108140000D01*
X129000000Y-107440000D02*
X129000000Y-106830000D01*
X130950000Y-107440000D02*
X129000000Y-107440000D01*
X130950000Y-110940000D02*
X130950000Y-107440000D01*
X122050000Y-110940000D02*
X130950000Y-110940000D01*
X122050000Y-107440000D02*
X122050000Y-110940000D01*
X124000000Y-107440000D02*
X122050000Y-107440000D01*
X124000000Y-106830000D02*
X124000000Y-107440000D01*
X123200000Y-106730000D02*
X122900000Y-106730000D01*
X122900000Y-106630000D02*
X122900000Y-106830000D01*
X123200000Y-106630000D02*
X122900000Y-106630000D01*
X123200000Y-106830000D02*
X123200000Y-106630000D01*
X131560000Y-106830000D02*
X121440000Y-106830000D01*
X131560000Y-111550000D02*
X131560000Y-106830000D01*
X121440000Y-111550000D02*
X131560000Y-111550000D01*
X121440000Y-106830000D02*
X121440000Y-111550000D01*
X98157500Y-104902742D02*
X98157500Y-105377258D01*
X99202500Y-104902742D02*
X99202500Y-105377258D01*
X101267500Y-104902742D02*
X101267500Y-105377258D01*
X102312500Y-104902742D02*
X102312500Y-105377258D01*
X100792500Y-104902742D02*
X100792500Y-105377258D01*
X99747500Y-104902742D02*
X99747500Y-105377258D01*
X120399420Y-129090000D02*
X120680580Y-129090000D01*
X120399420Y-130110000D02*
X120680580Y-130110000D01*
X121822742Y-130457500D02*
X122297258Y-130457500D01*
X121822742Y-131502500D02*
X122297258Y-131502500D01*
M02*
